<?xml version="1.0" encoding="UTF-8" standalone="no"?>
<svg
   xmlns:dc="http://purl.org/dc/elements/1.1/"
   xmlns:cc="http://creativecommons.org/ns#"
   xmlns:rdf="http://www.w3.org/1999/02/22-rdf-syntax-ns#"
   xmlns:svg="http://www.w3.org/2000/svg"
   xmlns="http://www.w3.org/2000/svg"
   xmlns:sodipodi="http://sodipodi.sourceforge.net/DTD/sodipodi-0.dtd"
   xmlns:inkscape="http://www.inkscape.org/namespaces/inkscape"
   width="300"
   height="300"
   viewBox="0 0 79.374999 79.374999"
   version="1.1"
   id="svg8"
   sodipodi:docname="原子分解装置.svg"
   inkscape:version="1.0.2-2 (e86c870879, 2021-01-15)">
  <sodipodi:namedview
     pagecolor="#ffffff"
     bordercolor="#666666"
     borderopacity="1"
     objecttolerance="10"
     gridtolerance="10"
     guidetolerance="10"
     inkscape:pageopacity="0"
     inkscape:pageshadow="2"
     inkscape:window-width="1920"
     inkscape:window-height="1001"
     id="namedview843"
     showgrid="false"
     units="px"
     inkscape:zoom="1.4271465"
     inkscape:cx="343.5447"
     inkscape:cy="247.00785"
     inkscape:window-x="-9"
     inkscape:window-y="-9"
     inkscape:window-maximized="1"
     inkscape:current-layer="svg8"
     inkscape:document-rotation="0" />
  <defs
     id="defs2" />
  <metadata
     id="metadata5">
    <rdf:RDF>
      <cc:Work
         rdf:about="">
        <dc:format>image/svg+xml</dc:format>
        <dc:type
           rdf:resource="http://purl.org/dc/dcmitype/StillImage" />
        <dc:title />
      </cc:Work>
    </rdf:RDF>
  </metadata>
  <path
     id="rect837"
     style="fill:#808080;fill-opacity:1;stroke:#4886b4;stroke-width:0.186326;stroke-linecap:round;stroke-linejoin:round;paint-order:stroke fill markers"
     d="M 5.9617072,0.09316314 H 73.413294 c 3.251173,0 5.868544,2.61737066 5.868544,5.86854406 V 73.413294 c 0,3.251173 -2.617371,5.868544 -5.868544,5.868544 H 5.9617072 c -3.2511734,0 -5.86854406,-2.617371 -5.86854406,-5.868544 V 5.9617072 c 0,-3.2511734 2.61737066,-5.86854406 5.86854406,-5.86854406 z" />
  <g
     aria-label="a→p+n+e"
     id="text835"
     style="font-style:italic;font-variant:normal;font-weight:bold;font-stretch:normal;font-size:15.8299px;line-height:1.25;font-family:'Source Han Serif';-inkscape-font-specification:'Source Han Serif Bold Italic';word-spacing:0px;fill:#fff648;fill-opacity:1;stroke-width:0.24734">
    <path
       d="m 7.4550234,18.8595 c -0.8389846,0.601536 -1.2822218,0.838985 -1.8046085,0.838985 -0.7598352,0 -1.1872425,-0.443238 -0.9972837,-1.377202 C 4.8589199,17.33983 5.476286,16.611654 6.8218275,16.120927 7.1067657,16.010118 7.5816626,15.883479 8.0882194,15.74101 Z m 3.2134696,0.522387 c -0.364088,0.379917 -0.585706,0.522386 -0.8231547,0.522386 -0.3482578,0 -0.5223867,-0.237448 -0.3799176,-0.949794 l 0.8231553,-4.084114 c 0.443237,-2.216186 -0.253279,-3.11849 -2.3269958,-3.11849 -2.200356,0 -3.6883666,0.886474 -4.1790935,2.311165 0,0.474897 0.2849382,0.728176 0.8073249,0.728176 0.5382166,0 1.0289435,-0.348258 1.266392,-1.218903 l 0.4590671,-1.139752 c 0.2849382,-0.06332 0.5698764,-0.09498 0.8389847,-0.09498 1.1872424,0 1.5196703,0.459067 1.1872424,2.137037 l -0.158299,0.807325 c -0.6490259,0.142469 -1.3138816,0.316598 -1.8204384,0.474897 -2.5961036,0.759835 -3.482578,1.5355 -3.7358564,2.849382 -0.2691083,1.329711 0.5382166,2.121206 1.8679282,2.121206 1.1714126,0 1.8837581,-0.490727 2.9443614,-1.408861 0.03166,0.854815 0.4748969,1.393031 1.4405208,1.393031 0.8389847,0 1.4563506,-0.300768 2.0262276,-1.092263 z"
       style="font-style:italic;font-variant:normal;font-weight:bold;font-stretch:normal;font-size:15.8299px;font-family:'Source Han Serif';-inkscape-font-specification:'Source Han Serif Bold Italic';fill:#fff648;fill-opacity:1;stroke-width:0.24734"
       id="path2719" />
    <path
       d="m 12.520573,14.838705 h 12.853878 c -1.187242,0.775665 -2.453634,1.836269 -3.498407,2.944362 l 0.490727,0.474897 c 1.377201,-1.472181 3.260959,-2.881042 4.891439,-3.799176 -1.250563,-0.918134 -2.596104,-2.326995 -3.371769,-3.799176 l -0.680686,0.474897 c 0.569877,1.060603 1.456351,2.168696 2.326995,2.944361 H 12.678872 Z"
       style="font-style:italic;font-variant:normal;font-weight:bold;font-stretch:normal;font-size:15.8299px;font-family:'Source Han Serif';-inkscape-font-specification:'Source Han Serif Bold Italic';fill:#fff648;fill-opacity:1;stroke-width:0.24734"
       id="path2721" />
    <path
       d="m 31.89634,13.461504 c 0.775665,-0.601536 1.329711,-0.728175 1.836268,-0.728175 1.313882,0 1.915418,0.997283 1.424691,3.498408 -0.522387,2.580273 -1.63048,3.482578 -2.928531,3.482578 -0.601537,0 -1.076434,-0.14247 -1.472181,-0.585707 z m 0.126639,-1.5355 -0.189959,-0.158299 -3.19764,0.965624 -0.07915,0.395747 1.250562,0.126639 c -0.110809,0.759836 -0.221619,1.345542 -0.427407,2.374485 l -1.013114,5.097228 c -0.189959,0.965624 -0.443237,2.105377 -0.680686,3.24513 l -1.234732,0.142469 -0.09498,0.474897 h 4.66982 l 0.09498,-0.474897 -1.329712,-0.158299 c 0.205789,-1.139753 0.427407,-2.279506 0.617366,-3.2293 l 0.221619,-1.092263 c 0.522386,0.807325 1.282222,1.092263 2.105376,1.092263 2.089547,0 4.099944,-1.741289 4.653991,-4.543181 0.569876,-2.801892 -0.617366,-4.432372 -2.532784,-4.432372 -0.981454,0 -1.994567,0.364088 -2.928532,1.218902 z"
       style="font-style:italic;font-variant:normal;font-weight:bold;font-stretch:normal;font-size:15.8299px;font-family:'Source Han Serif';-inkscape-font-specification:'Source Han Serif Bold Italic';fill:#fff648;fill-opacity:1;stroke-width:0.24734"
       id="path2723" />
    <path
       d="m 47.36214,14.268829 h -3.735856 l 0.775665,-3.878325 h -0.902304 l -0.775665,3.878325 h -3.751686 l -0.158299,0.854815 h 3.751686 l -0.807325,3.973304 h 0.902304 l 0.807325,-3.973304 h 3.735856 z"
       style="font-style:italic;font-variant:normal;font-weight:bold;font-stretch:normal;font-size:15.8299px;font-family:'Source Han Serif';-inkscape-font-specification:'Source Han Serif Bold Italic';fill:#fff648;fill-opacity:1;stroke-width:0.24734"
       id="path2725" />
    <path
       d="m 56.116066,19.856784 c 0.158299,-0.902305 0.411577,-2.200356 0.585706,-3.102661 l 0.379918,-1.931248 c 0.427407,-2.121206 -0.316598,-3.071 -1.804609,-3.071 -1.028943,0 -2.089546,0.443237 -3.324279,1.59882 l 0.174129,-1.440521 -0.189959,-0.142469 -3.229299,0.965624 -0.07915,0.395747 1.218903,0.126639 c -0.09498,0.759836 -0.205789,1.329712 -0.411578,2.358655 l -0.221618,1.139753 c -0.174129,0.870645 -0.459067,2.184526 -0.649026,3.086831 l -1.187243,0.142469 -0.09498,0.490727 h 4.337392 l 0.09498,-0.490727 -0.997284,-0.126639 c 0.158299,-0.902305 0.411578,-2.232016 0.585706,-3.102661 l 0.569877,-2.849382 c 0.918134,-0.712345 1.693799,-1.028943 2.279505,-1.028943 0.854815,0 1.155583,0.474897 0.886475,1.852098 l -0.411578,2.026227 c -0.174128,0.902305 -0.459067,2.200356 -0.664855,3.086831 l -1.139753,0.142469 -0.09498,0.490727 h 4.337393 l 0.09498,-0.490727 z"
       style="font-style:italic;font-variant:normal;font-weight:bold;font-stretch:normal;font-size:15.8299px;font-family:'Source Han Serif';-inkscape-font-specification:'Source Han Serif Bold Italic';fill:#fff648;fill-opacity:1;stroke-width:0.24734"
       id="path2727" />
    <path
       d="m 67.68771,14.268829 h -3.735857 l 0.775665,-3.878325 h -0.902304 l -0.775665,3.878325 h -3.751686 l -0.158299,0.854815 h 3.751686 l -0.807325,3.973304 h 0.902304 l 0.807325,-3.973304 h 3.735857 z"
       style="font-style:italic;font-variant:normal;font-weight:bold;font-stretch:normal;font-size:15.8299px;font-family:'Source Han Serif';-inkscape-font-specification:'Source Han Serif Bold Italic';fill:#fff648;fill-opacity:1;stroke-width:0.24734"
       id="path2729" />
    <path
       d="m 70.837851,15.61437 c 0.569876,-2.311165 1.630479,-3.276789 2.627763,-3.276789 0.965624,0 1.472181,0.823155 1.218902,2.105377 -0.158299,0.807325 -0.411577,1.171412 -1.139752,1.171412 z m 5.366336,0.585707 c 0.126639,-0.269109 0.221618,-0.569877 0.300768,-0.981454 0.411577,-1.994567 -0.617366,-3.466748 -2.786063,-3.466748 -2.216186,0 -4.62233,1.63048 -5.192207,4.479862 -0.585706,2.881041 0.902305,4.495691 3.387599,4.495691 1.56716,0 2.912701,-0.744005 3.815006,-2.042057 l -0.284939,-0.221619 c -0.696515,0.744006 -1.47218,1.218903 -2.611933,1.218903 -1.5355,0 -2.532784,-1.060604 -2.105377,-3.482578 z"
       style="font-style:italic;font-variant:normal;font-weight:bold;font-stretch:normal;font-size:15.8299px;font-family:'Source Han Serif';-inkscape-font-specification:'Source Han Serif Bold Italic';fill:#fff648;fill-opacity:1;stroke-width:0.24734"
       id="path2731" />
  </g>
  <g
     aria-label="分子分解装置"
     transform="scale(0.81529559,1.226549)"
     id="text841"
     style="font-size:14.6004px;line-height:1.25;font-family:'Source Han Code JP';-inkscape-font-specification:'Source Han Code JP';word-spacing:0px;fill:#ffffff;fill-opacity:1;stroke:#ffffff;stroke-width:0.520992;stroke-linecap:round;stroke-linejoin:round;stroke-miterlimit:4;stroke-dasharray:none;stroke-opacity:1">
    <path
       d="m 9.2437091,31.668074 c -0.9052248,2.233862 -2.5258692,4.248717 -4.3655196,5.47515 0.2628072,0.204406 0.73002,0.613217 0.9198252,0.846824 C 7.6376651,36.61761 9.3313115,34.44215 10.38254,31.989283 Z m -2.0002548,5.183142 v 1.051229 h 2.9784817 c -0.3358093,2.452867 -1.1388313,4.774331 -4.5699253,5.913162 0.2482068,0.233607 0.5548152,0.671619 0.7008192,0.949026 3.7085021,-1.343237 4.6429271,-3.985909 5.0225381,-6.862188 h 3.766903 c -0.175205,3.679301 -0.379611,5.139341 -0.759221,5.504351 -0.131404,0.160604 -0.306608,0.189805 -0.613217,0.189805 -0.335809,0 -1.241034,-0.0146 -2.19006,-0.102203 0.204406,0.321209 0.335809,0.759221 0.36501,1.08043 0.905225,0.0438 1.81045,0.073 2.292263,0.0292 0.511014,-0.0584 0.817622,-0.146004 1.124231,-0.511014 0.496413,-0.554815 0.715419,-2.233861 0.919825,-6.716184 0.0146,-0.146004 0.0292,-0.525615 0.0292,-0.525615 z m 6.0153647,-4.803531 c 1.08043,2.160859 2.92008,4.511523 4.526124,5.810959 0.204406,-0.306608 0.613217,-0.73002 0.890625,-0.963626 -1.576844,-1.109631 -3.445695,-3.299691 -4.394721,-5.256144 z"
       style="fill:#ffffff;fill-opacity:1;stroke:#ffffff;stroke-width:0.520992;stroke-linecap:round;stroke-linejoin:round;stroke-miterlimit:4;stroke-dasharray:none;stroke-opacity:1"
       id="path2734" />
    <path
       d="m 32.983932,37.844044 h -6.015365 v -1.43084 c 1.620644,-0.876024 3.533297,-2.233861 4.774331,-3.489495 l -0.788422,-0.598617 -0.262807,0.0584 h -9.358856 v 1.051229 h 8.220025 c -0.846823,0.73002 -1.971054,1.503841 -3.007683,2.073257 h -0.686218 v 2.336064 h -6.029966 v 1.080429 h 6.029966 v 4.36552 c 0,0.262807 -0.0876,0.335809 -0.408812,0.350409 -0.306608,0.0146 -1.387038,0.0146 -2.55507,-0.0292 0.189806,0.306608 0.379611,0.803022 0.467213,1.10963 1.387038,0.0146 2.336064,-0.0146 2.876279,-0.189805 0.540215,-0.175205 0.73002,-0.511014 0.73002,-1.241034 v -4.36552 h 6.015365 z"
       style="fill:#ffffff;fill-opacity:1;stroke:#ffffff;stroke-width:0.520992;stroke-linecap:round;stroke-linejoin:round;stroke-miterlimit:4;stroke-dasharray:none;stroke-opacity:1"
       id="path2736" />
    <path
       d="m 38.444454,31.668074 c -0.905225,2.233862 -2.525869,4.248717 -4.36552,5.47515 0.262807,0.204406 0.73002,0.613217 0.919825,0.846824 1.839651,-1.372438 3.533297,-3.547898 4.584526,-6.000765 z m -2.000255,5.183142 v 1.051229 h 2.978482 c -0.33581,2.452867 -1.138832,4.774331 -4.569926,5.913162 0.248207,0.233607 0.554816,0.671619 0.70082,0.949026 3.708501,-1.343237 4.642927,-3.985909 5.022537,-6.862188 h 3.766903 c -0.175204,3.679301 -0.37961,5.139341 -0.75922,5.504351 -0.131404,0.160604 -0.306609,0.189805 -0.613217,0.189805 -0.335809,0 -1.241034,-0.0146 -2.19006,-0.102203 0.204405,0.321209 0.335809,0.759221 0.36501,1.08043 0.905225,0.0438 1.810449,0.073 2.292263,0.0292 0.511014,-0.0584 0.817622,-0.146004 1.12423,-0.511014 0.496414,-0.554815 0.71542,-2.233861 0.919826,-6.716184 0.0146,-0.146004 0.0292,-0.525615 0.0292,-0.525615 z m 6.015365,-4.803531 c 1.080429,2.160859 2.92008,4.511523 4.526124,5.810959 0.204405,-0.306608 0.613217,-0.73002 0.890624,-0.963626 -1.576843,-1.109631 -3.445694,-3.299691 -4.39472,-5.256144 z"
       style="fill:#ffffff;fill-opacity:1;stroke:#ffffff;stroke-width:0.520992;stroke-linecap:round;stroke-linejoin:round;stroke-miterlimit:4;stroke-dasharray:none;stroke-opacity:1"
       id="path2738" />
    <path
       d="m 52.928023,40.034104 v -1.708247 h 1.314036 v 1.708247 z m -2.102458,-1.708247 h 1.314036 v 1.708247 h -1.343237 c 0.0292,-0.394211 0.0292,-0.788422 0.0292,-1.138832 z m 2.19006,-4.803532 c -0.175205,0.511014 -0.423411,1.08043 -0.642417,1.518442 h -1.679046 c 0.262807,-0.467213 0.511014,-0.978227 0.73002,-1.518442 z m -0.0876,2.379865 h 1.314036 v 1.606044 h -1.314036 z m -2.102458,0 h 1.314036 v 1.606044 h -1.314036 z m 10.059676,-2.876278 c -0.0876,1.693646 -0.219006,2.365264 -0.379611,2.55507 -0.102202,0.131403 -0.219006,0.146004 -0.408811,0.131403 -0.204405,0 -0.74462,0 -1.314036,-0.0584 0.131404,0.248206 0.219006,0.627817 0.248207,0.905224 0.598616,0.0292 1.197233,0.0438 1.503841,0.0146 0.379611,-0.0292 0.598617,-0.131404 0.788422,-0.36501 0.321209,-0.35041 0.438012,-1.284835 0.554815,-3.693901 0.0146,-0.131404 0.0146,-0.408812 0.0146,-0.408812 h -6.307372 v 0.919826 h 1.971054 c -0.277408,1.372437 -0.861424,2.525869 -2.394466,3.197487 v -1.182632 h -1.82505 c 0.335809,-0.627817 0.671618,-1.372438 0.919825,-2.014855 l -0.642417,-0.408812 -0.160605,0.0438 H 51.74539 c 0.116804,-0.35041 0.233607,-0.71542 0.33581,-1.08043 l -1.007428,-0.219006 c -0.438012,1.781249 -1.241034,3.504096 -2.277662,4.613726 0.233606,0.146004 0.657018,0.481814 0.817622,0.657018 0.102203,-0.116803 0.204406,-0.248206 0.306608,-0.37961 v 2.642672 c 0,1.635245 -0.102202,3.796104 -1.080429,5.329146 0.219006,0.102203 0.627817,0.33581 0.773821,0.496414 0.686219,-1.051229 0.992827,-2.482068 1.124231,-3.839905 h 3.504096 v 2.628072 c 0,0.189805 -0.073,0.248207 -0.277408,0.262807 -0.189805,0.0146 -0.846823,0.0146 -1.606044,-0.0146 0.146004,0.248206 0.306609,0.671618 0.35041,0.919825 1.007427,0 1.591443,-0.0146 1.956453,-0.175205 0.379611,-0.160604 0.496414,-0.467213 0.496414,-0.992827 V 36.238 c 0.204406,0.175204 0.467213,0.496413 0.584016,0.73002 1.795849,-0.817623 2.496668,-2.219261 2.803277,-3.942108 z m 1.401638,7.928017 H 59.512803 V 39.15808 h 2.525869 v -0.934426 h -2.525869 v -1.489241 h -1.036628 v 1.489241 H 57.20594 c 0.116803,-0.37961 0.219006,-0.773821 0.306608,-1.168032 l -0.919825,-0.189805 c -0.262807,1.241034 -0.700819,2.438267 -1.343237,3.270489 0.248207,0.116804 0.671619,0.321209 0.846824,0.452613 0.277407,-0.394211 0.540214,-0.890625 0.75922,-1.430839 h 1.620645 v 1.795849 h -3.066084 v 0.934425 h 3.066084 v 2.730275 h 1.036628 v -2.730275 h 2.774076 z"
       style="fill:#ffffff;fill-opacity:1;stroke:#ffffff;stroke-width:0.520992;stroke-linecap:round;stroke-linejoin:round;stroke-miterlimit:4;stroke-dasharray:none;stroke-opacity:1"
       id="path2740" />
    <path
       d="m 72.054519,36.63221 h -3.022283 v 0.949026 h 7.241799 V 36.63221 h -3.139086 v -2.306863 h 3.577098 v -0.963626 h -3.577098 v -2.000255 h -1.08043 v 2.000255 h -3.474895 v 0.963626 h 3.474895 z m -4.204915,-5.270744 h -1.007428 v 6.818387 h 1.007428 z m -1.46004,2.306863 C 66.024554,33.201116 65.236132,32.5879 64.593715,32.179088 l -0.657018,0.613217 c 0.642417,0.438012 1.416239,1.09503 1.766648,1.562243 z m 0.0584,1.547643 c -1.109631,0.511014 -2.204661,0.992827 -2.978482,1.299435 l 0.37961,0.890625 c 0.846824,-0.379611 1.854251,-0.846824 2.817878,-1.299436 z m 8.658037,5.007937 c -0.642418,0.467213 -1.693647,1.09503 -2.55507,1.518441 -0.569416,-0.511014 -1.036629,-1.10963 -1.401639,-1.766648 h 5.548152 v -0.861424 h -6.000764 v -1.168032 h -1.08043 v 1.168032 H 63.68849 v 0.861424 h 4.993337 c -1.357837,0.905225 -3.387293,1.635245 -5.197743,1.971054 0.204406,0.204406 0.481814,0.554815 0.613217,0.803022 0.919825,-0.204406 1.898052,-0.511014 2.817877,-0.905225 v 1.591444 c -0.642417,0.0876 -1.241034,0.160604 -1.737447,0.219006 l 0.189805,0.934425 c 1.591444,-0.204405 3.825305,-0.525614 5.956963,-0.832222 l -0.0438,-0.905225 c -1.124231,0.160604 -2.277662,0.306608 -3.343492,0.452612 V 41.37734 c 0.817623,-0.408811 1.547643,-0.890624 2.131659,-1.401638 h 0.0292 c 1.182632,2.438267 3.28509,4.058911 6.175969,4.774331 0.131403,-0.262807 0.408811,-0.671619 0.642417,-0.890625 -1.430839,-0.292008 -2.686473,-0.832222 -3.708501,-1.576843 0.861423,-0.394211 1.898052,-0.949026 2.686473,-1.489241 z"
       style="fill:#ffffff;fill-opacity:1;stroke:#ffffff;stroke-width:0.520992;stroke-linecap:round;stroke-linejoin:round;stroke-miterlimit:4;stroke-dasharray:none;stroke-opacity:1"
       id="path2742" />
    <path
       d="m 83.559607,32.763104 h 2.379865 v 1.299436 h -2.379865 z m -1.007428,1.299436 h -2.321463 v -1.299436 h 2.321463 z M 86.9469,32.763104 h 2.452867 V 34.06254 H 86.9469 Z m 1.868851,6.059166 h -5.913162 v -0.788421 h 5.913162 z m 0,1.44544 h -5.913162 v -0.803022 h 5.913162 z m 0,1.47464 h -5.913162 v -0.817622 h 5.913162 z m -6.92059,-4.38012 v 5.037138 h 7.957218 V 37.36223 H 85.12185 c 0.0438,-0.262807 0.102202,-0.540214 0.146004,-0.846823 h 5.796358 v -0.861423 h -5.650354 c 0.0438,-0.262808 0.073,-0.540215 0.116803,-0.788422 h 4.934935 V 31.974683 H 79.208688 v 2.890879 h 5.226943 c -0.0292,0.248207 -0.0584,0.525614 -0.0876,0.788422 h -5.810959 v 0.861423 h 5.679556 c -0.0438,0.292008 -0.102203,0.584016 -0.146004,0.846823 z m 9.534061,5.854761 H 80.420521 v -5.635755 h -1.08043 v 7.124996 h 1.08043 v -0.613217 h 11.008701 z"
       style="fill:#ffffff;fill-opacity:1;stroke:#ffffff;stroke-width:0.520992;stroke-linecap:round;stroke-linejoin:round;stroke-miterlimit:4;stroke-dasharray:none;stroke-opacity:1"
       id="path2744" />
  </g>
</svg>
