<?xml version="1.0" encoding="UTF-8" standalone="no"?>
<svg
   xmlns:dc="http://purl.org/dc/elements/1.1/"
   xmlns:cc="http://creativecommons.org/ns#"
   xmlns:rdf="http://www.w3.org/1999/02/22-rdf-syntax-ns#"
   xmlns:svg="http://www.w3.org/2000/svg"
   xmlns="http://www.w3.org/2000/svg"
   xmlns:sodipodi="http://sodipodi.sourceforge.net/DTD/sodipodi-0.dtd"
   xmlns:inkscape="http://www.inkscape.org/namespaces/inkscape"
   width="300"
   height="300"
   viewBox="0 0 79.374999 79.374999"
   version="1.1"
   id="svg8"
   sodipodi:docname="原子加速装置.svg"
   inkscape:version="1.0.2-2 (e86c870879, 2021-01-15)">
  <sodipodi:namedview
     pagecolor="#ffffff"
     bordercolor="#666666"
     borderopacity="1"
     objecttolerance="10"
     gridtolerance="10"
     guidetolerance="10"
     inkscape:pageopacity="0"
     inkscape:pageshadow="2"
     inkscape:window-width="1920"
     inkscape:window-height="1001"
     id="namedview843"
     showgrid="false"
     units="px"
     inkscape:zoom="1.4271465"
     inkscape:cx="343.5447"
     inkscape:cy="247.00785"
     inkscape:window-x="-9"
     inkscape:window-y="-9"
     inkscape:window-maximized="1"
     inkscape:current-layer="svg8" />
  <defs
     id="defs2" />
  <metadata
     id="metadata5">
    <rdf:RDF>
      <cc:Work
         rdf:about="">
        <dc:format>image/svg+xml</dc:format>
        <dc:type
           rdf:resource="http://purl.org/dc/dcmitype/StillImage" />
        <dc:title></dc:title>
      </cc:Work>
    </rdf:RDF>
  </metadata>
  <path
     id="rect837"
     style="fill:#808080;fill-opacity:1;stroke:#4886b4;stroke-width:0.186326;stroke-linecap:round;stroke-linejoin:round;paint-order:stroke fill markers"
     d="M 5.9617072,0.09316314 H 73.413294 c 3.251173,0 5.868544,2.61737066 5.868544,5.86854406 V 73.413294 c 0,3.251173 -2.617371,5.868544 -5.868544,5.868544 H 5.9617072 c -3.2511734,0 -5.86854406,-2.617371 -5.86854406,-5.868544 V 5.9617072 c 0,-3.2511734 2.61737066,-5.86854406 5.86854406,-5.86854406 z" />
  <g
     aria-label="a+a→a"
     transform="scale(0.96492237,1.0363528)"
     id="text835"
     style="font-style:italic;font-variant:normal;font-weight:bold;font-stretch:normal;font-size:16.3835px;line-height:1.25;font-family:'Source Han Serif';-inkscape-font-specification:'Source Han Serif Bold Italic';word-spacing:0px;fill:#fff648;fill-opacity:1;stroke-width:0.255988">
    <path
       d="m 18.135942,21.500586 c -0.868326,0.622573 -1.327064,0.868326 -1.867719,0.868326 -0.786408,0 -1.228763,-0.458738 -1.032161,-1.425365 0.212986,-1.015776 0.851942,-1.769417 2.24454,-2.277306 0.294903,-0.114684 0.786408,-0.245752 1.31068,-0.393204 z m 3.32585,0.540656 c -0.37682,0.393204 -0.606189,0.540655 -0.851942,0.540655 -0.360437,0 -0.540655,-0.245752 -0.393204,-0.98301 l 0.851942,-4.226942 c 0.458738,-2.29369 -0.262136,-3.22755 -2.408374,-3.22755 -2.277307,0 -3.817356,0.917476 -4.325244,2.391991 0,0.491505 0.294903,0.753641 0.835558,0.753641 0.557039,0 1.064928,-0.360437 1.31068,-1.261529 l 0.475122,-1.179612 c 0.294903,-0.06553 0.589806,-0.0983 0.868325,-0.0983 1.228763,0 1.572816,0.475121 1.228763,2.211772 l -0.163835,0.835559 c -0.671724,0.147451 -1.359831,0.32767 -1.884103,0.491505 -2.686893,0.786408 -3.604369,1.589199 -3.866505,2.949029 -0.27852,1.376214 0.557039,2.195389 1.933252,2.195389 1.212379,0 1.949637,-0.507888 3.047331,-1.458131 0.03277,0.884709 0.491505,1.441748 1.490899,1.441748 0.868325,0 1.507282,-0.311287 2.097088,-1.130462 z"
       style="font-style:italic;font-variant:normal;font-weight:bold;font-stretch:normal;font-size:16.3835px;font-family:'Source Han Serif';-inkscape-font-specification:'Source Han Serif Bold Italic';fill:#fff648;fill-opacity:1;stroke-width:0.255988"
       id="path930" />
    <path
       d="m 32.111047,16.749372 h -3.866505 l 0.802791,-4.013958 h -0.933859 l -0.802792,4.013958 h -3.882889 l -0.163835,0.884709 h 3.882889 l -0.835558,4.112258 h 0.933859 l 0.835559,-4.112258 h 3.866505 z"
       style="font-style:italic;font-variant:normal;font-weight:bold;font-stretch:normal;font-size:16.3835px;font-family:'Source Han Serif';-inkscape-font-specification:'Source Han Serif Bold Italic';fill:#fff648;fill-opacity:1;stroke-width:0.255988"
       id="path932" />
    <path
       d="m 37.533975,21.500586 c -0.868326,0.622573 -1.327063,0.868326 -1.867719,0.868326 -0.786408,0 -1.228762,-0.458738 -1.03216,-1.425365 0.212985,-1.015776 0.851942,-1.769417 2.244539,-2.277306 0.294903,-0.114684 0.786408,-0.245752 1.31068,-0.393204 z m 3.32585,0.540656 c -0.37682,0.393204 -0.606189,0.540655 -0.851942,0.540655 -0.360437,0 -0.540655,-0.245752 -0.393204,-0.98301 l 0.851942,-4.226942 c 0.458738,-2.29369 -0.262136,-3.22755 -2.408374,-3.22755 -2.277306,0 -3.817355,0.917476 -4.325244,2.391991 0,0.491505 0.294903,0.753641 0.835559,0.753641 0.557039,0 1.064927,-0.360437 1.31068,-1.261529 l 0.475121,-1.179612 c 0.294903,-0.06553 0.589806,-0.0983 0.868325,-0.0983 1.228763,0 1.572816,0.475121 1.228763,2.211772 l -0.163835,0.835559 c -0.671724,0.147451 -1.359831,0.32767 -1.884102,0.491505 -2.686894,0.786408 -3.60437,1.589199 -3.866506,2.949029 -0.27852,1.376214 0.557039,2.195389 1.933253,2.195389 1.212379,0 1.949636,-0.507888 3.04733,-1.458131 0.03277,0.884709 0.491505,1.441748 1.490899,1.441748 0.868325,0 1.507282,-0.311287 2.097088,-1.130462 z"
       style="font-style:italic;font-variant:normal;font-weight:bold;font-stretch:normal;font-size:16.3835px;font-family:'Source Han Serif';-inkscape-font-specification:'Source Han Serif Bold Italic';fill:#fff648;fill-opacity:1;stroke-width:0.255988"
       id="path934" />
    <path
       d="m 42.776673,17.339178 h 13.303402 c -1.228763,0.802791 -2.539443,1.900486 -3.620754,3.04733 l 0.507889,0.491505 c 1.425364,-1.523665 3.375001,-2.981796 5.062501,-3.932039 -1.294296,-0.950243 -2.686894,-2.408375 -3.489685,-3.93204 l -0.704491,0.491505 c 0.589806,1.097694 1.507282,2.244539 2.408375,3.047331 H 42.940508 Z"
       style="font-style:italic;font-variant:normal;font-weight:bold;font-stretch:normal;font-size:16.3835px;font-family:'Source Han Serif';-inkscape-font-specification:'Source Han Serif Bold Italic';fill:#fff648;fill-opacity:1;stroke-width:0.255988"
       id="path936" />
    <path
       d="m 63.452619,21.500586 c -0.868326,0.622573 -1.327064,0.868326 -1.867719,0.868326 -0.786408,0 -1.228762,-0.458738 -1.03216,-1.425365 0.212985,-1.015776 0.851942,-1.769417 2.244539,-2.277306 0.294903,-0.114684 0.786408,-0.245752 1.31068,-0.393204 z m 3.32585,0.540656 c -0.37682,0.393204 -0.606189,0.540655 -0.851942,0.540655 -0.360437,0 -0.540655,-0.245752 -0.393204,-0.98301 l 0.851942,-4.226942 c 0.458738,-2.29369 -0.262136,-3.22755 -2.408374,-3.22755 -2.277307,0 -3.817355,0.917476 -4.325244,2.391991 0,0.491505 0.294903,0.753641 0.835559,0.753641 0.557039,0 1.064927,-0.360437 1.310679,-1.261529 l 0.475122,-1.179612 c 0.294903,-0.06553 0.589806,-0.0983 0.868325,-0.0983 1.228763,0 1.572816,0.475121 1.228763,2.211772 l -0.163835,0.835559 c -0.671724,0.147451 -1.359831,0.32767 -1.884103,0.491505 -2.686893,0.786408 -3.604369,1.589199 -3.866505,2.949029 -0.27852,1.376214 0.557039,2.195389 1.933253,2.195389 1.212378,0 1.949636,-0.507888 3.04733,-1.458131 0.03277,0.884709 0.491505,1.441748 1.490899,1.441748 0.868325,0 1.507282,-0.311287 2.097088,-1.130462 z"
       style="font-style:italic;font-variant:normal;font-weight:bold;font-stretch:normal;font-size:16.3835px;font-family:'Source Han Serif';-inkscape-font-specification:'Source Han Serif Bold Italic';fill:#fff648;fill-opacity:1;stroke-width:0.255988"
       id="path938" />
  </g>
  <g
     aria-label="原子加速装置"
     transform="scale(0.82801177,1.2077123)"
     id="text841"
     style="font-size:14.8251px;line-height:1.25;font-family:'Source Han Code JP';-inkscape-font-specification:'Source Han Code JP';word-spacing:0px;fill:#ffffff;fill-opacity:1;stroke:#ffffff;stroke-width:0.529009;stroke-linecap:round;stroke-linejoin:round;stroke-miterlimit:4;stroke-dasharray:none;stroke-opacity:1">
    <path
       d="m 9.2780142,38.932765 c -0.6819546,1.111882 -1.779012,2.208939 -2.8760694,2.920544 0.2520267,0.148251 0.7116048,0.459578 0.9043311,0.652305 1.0674072,-0.800556 2.2385901,-2.031039 3.0094951,-3.276347 z m -0.044475,-3.009496 h 6.1227661 v 1.363909 H 9.2335389 Z m 0,-2.179289 h 6.1227661 v 1.349084 H 9.2335389 Z m 7.2494741,4.417879 v -5.29256 H 12.40611 c 0.163076,-0.444753 0.326152,-0.963632 0.474403,-1.45286 h 4.803333 V 30.423157 H 5.7348153 v 4.239979 c 0,2.32754 -0.1186008,5.559412 -1.4232096,7.872128 0.2816769,0.103776 0.741255,0.385452 0.9488064,0.563354 1.3639092,-2.416492 1.5566355,-5.974516 1.5566355,-8.420657 V 31.416439 H 11.59073 c -0.07413,0.444753 -0.207552,0.993282 -0.340978,1.45286 H 8.1513066 v 5.29256 h 3.5876744 v 3.765576 c 0,0.177901 -0.0593,0.252026 -0.281677,0.252026 -0.222377,0.01483 -0.993282,0.01483 -1.8531376,-0.01483 0.1334259,0.281677 0.296502,0.681955 0.3409773,0.963632 1.1415323,0 1.8531373,0 2.2978903,-0.163076 0.444753,-0.148251 0.563354,-0.444753 0.563354,-1.022932 v -3.780401 z m -2.401666,1.245309 c 1.111882,0.889506 2.401666,2.164464 2.96502,3.039145 l 0.889506,-0.607829 c -0.60783,-0.874681 -1.912438,-2.105164 -3.009496,-2.96502 z"
       style="stroke-width:0.529009"
       id="path917" />
    <path
       d="m 32.686818,36.175296 h -6.107941 v -1.45286 c 1.645586,-0.889506 3.587674,-2.26824 4.847808,-3.543199 l -0.800555,-0.607829 -0.266852,0.0593 h -9.502889 v 1.067407 h 8.346531 c -0.859856,0.741255 -2.001389,1.526985 -3.053971,2.105164 H 25.45217 v 2.372016 h -6.122767 v 1.097057 h 6.122767 v 4.432705 c 0,0.266852 -0.08895,0.340978 -0.415103,0.355803 -0.311327,0.01482 -1.408385,0.01482 -2.594393,-0.02965 0.192727,0.311328 0.385453,0.815381 0.474404,1.126708 1.408384,0.01482 2.372016,-0.01483 2.920544,-0.192726 0.548529,-0.177901 0.741255,-0.518879 0.741255,-1.260134 v -4.432705 h 6.107941 z"
       style="stroke-width:0.529009"
       id="path919" />
    <path
       d="m 40.662694,32.38007 h -3.276348 c 0.01483,-0.84503 0.02965,-1.704886 0.02965,-2.579567 h -1.082233 c 0,0.874681 0,1.734537 -0.01483,2.579567 h -2.075514 v 1.082233 h 2.045864 c -0.118601,3.706275 -0.563354,6.982622 -2.401666,8.92471 0.266852,0.163076 0.667129,0.518878 0.830205,0.75608 2.001389,-2.164465 2.505442,-5.707664 2.638868,-9.68079 h 2.23859 c -0.103775,5.678013 -0.237201,7.694227 -0.578179,8.109329 -0.103775,0.207552 -0.252026,0.252027 -0.489228,0.237202 -0.266852,0 -0.904331,0 -1.586286,-0.0593 0.192727,0.311327 0.296502,0.78573 0.326153,1.111882 0.652304,0.04447 1.334259,0.04447 1.734536,-0.01483 0.444753,-0.04447 0.711605,-0.177901 0.978457,-0.563354 0.459578,-0.637479 0.563354,-2.787119 0.681955,-9.339813 z m 2.253415,8.391007 v -8.272406 h 2.876069 v 8.272406 z m -1.037757,-9.339813 v 11.474627 h 1.037757 v -1.082232 h 2.876069 v 0.978457 h 1.097058 V 31.431264 Z"
       style="stroke-width:0.529009"
       id="path921" />
    <path
       d="m 54.583432,34.188733 h 2.327541 v 1.882787 h -2.327541 z m 5.855914,0 v 1.882787 h -2.446141 v -1.882787 z m -3.528373,7.056747 h 1.082232 v -3.528374 c 0.963631,1.215659 2.312715,2.401667 3.513549,3.053971 0.177901,-0.281677 0.504053,-0.66713 0.75608,-0.859856 -1.319434,-0.578179 -2.84642,-1.779012 -3.780401,-2.950195 h 3.024321 v -3.646974 h -3.513549 v -1.230484 h 4.180678 v -0.948806 h -4.180678 v -1.51216 h -1.082232 v 1.51216 h -3.943477 v 0.948806 h 3.943477 v 1.230484 h -3.335648 v 3.646974 h 2.757469 c -0.859856,1.245309 -2.312716,2.431317 -3.646975,3.009496 0.237202,0.192726 0.548529,0.578178 0.711605,0.830205 1.260133,-0.652304 2.594392,-1.853137 3.513549,-3.142921 z m -4.35858,-8.998836 C 52.033515,31.53504 50.921632,30.586233 49.972826,29.963579 l -0.815381,0.652304 c 0.963632,0.652305 2.060689,1.645587 2.520267,2.357191 z m -0.415103,3.157747 h -3.142921 v 1.037757 h 2.060689 v 3.75075 c -0.741255,0.622654 -1.57146,1.245308 -2.253415,1.690061 l 0.593004,1.111883 c 0.78573,-0.637479 1.526985,-1.274959 2.23859,-1.897613 0.948806,1.141533 2.26824,1.675236 4.195503,1.749362 1.630761,0.0593 4.669907,0.02965 6.285843,-0.02965 0.04447,-0.340978 0.237201,-0.859856 0.355802,-1.126708 -1.734537,0.118601 -5.025709,0.163076 -6.641645,0.103776 -1.704886,-0.07413 -2.99467,-0.578179 -3.69145,-1.660411 z"
       style="stroke-width:0.529009"
       id="path923" />
    <path
       d="m 72.3587,34.944813 h -3.068796 v 0.963631 h 7.35325 v -0.963631 h -3.187397 v -2.342366 h 3.63215 V 31.62399 h -3.63215 V 29.592952 H 72.3587 v 2.031038 h -3.528374 v 0.978457 H 72.3587 Z m -4.269629,-5.351861 h -1.022932 v 6.923321 h 1.022932 z m -1.48251,2.342365 c -0.370627,-0.474403 -1.171183,-1.097057 -1.823487,-1.51216 l -0.66713,0.622654 c 0.652305,0.444753 1.438035,1.111883 1.793838,1.586286 z m 0.0593,1.571461 c -1.126708,0.518878 -2.23859,1.008107 -3.024321,1.319434 l 0.385453,0.904331 c 0.859856,-0.385453 1.882788,-0.859856 2.861244,-1.319434 z m 8.791284,5.085009 c -0.652304,0.474403 -1.719712,1.111883 -2.594393,1.541811 -0.578178,-0.518879 -1.052582,-1.126708 -1.423209,-1.793837 h 5.633538 V 37.46508 h -6.093116 v -1.186008 h -1.097058 v 1.186008 h -6.01899 v 0.874681 h 5.070184 c -1.378734,0.919156 -3.439423,1.660411 -5.277736,2.001388 0.207552,0.207551 0.489229,0.563354 0.622655,0.815381 0.933981,-0.207552 1.927263,-0.518879 2.861244,-0.919157 v 1.615936 c -0.652305,0.08895 -1.260134,0.163076 -1.764187,0.222377 l 0.192726,0.948806 c 1.615936,-0.207551 3.884176,-0.533703 6.048641,-0.845031 l -0.04448,-0.919156 c -1.141533,0.163076 -2.312716,0.311327 -3.394948,0.459578 V 39.76297 c 0.830205,-0.415103 1.57146,-0.904331 2.164464,-1.423209 h 0.02965 c 1.200833,2.475791 3.335647,4.121377 6.271017,4.847807 0.133426,-0.266852 0.415103,-0.681954 0.652304,-0.904331 -1.452859,-0.296502 -2.727818,-0.845031 -3.765575,-1.601111 0.874681,-0.400277 1.927263,-0.963631 2.727818,-1.51216 z"
       style="stroke-width:0.529009"
       id="path925" />
    <path
       d="m 84.040852,31.016161 h 2.416491 v 1.319434 h -2.416491 z m -1.022932,1.319434 h -2.357191 v -1.319434 h 2.357191 z m 4.462355,-1.319434 h 2.490617 v 1.319434 h -2.490617 z m 1.897613,6.152417 h -6.004165 v -0.800556 h 6.004165 z m 0,1.467685 h -6.004165 v -0.815381 h 6.004165 z m 0,1.497335 h -6.004165 v -0.830206 h 6.004165 z m -7.027097,-4.44753 v 5.114659 h 8.079679 v -5.114659 h -4.803332 c 0.04447,-0.266852 0.103775,-0.548529 0.148251,-0.859856 h 5.885564 V 33.951531 H 85.92364 c 0.04447,-0.266852 0.07412,-0.548529 0.118601,-0.800555 h 5.010883 v -2.93537 H 79.622972 v 2.93537 h 5.307386 c -0.02965,0.252026 -0.0593,0.533703 -0.08895,0.800555 h -5.900389 v 0.874681 h 5.766964 c -0.04448,0.296502 -0.103776,0.593004 -0.148251,0.859856 z m 9.68079,5.944865 H 80.853456 v -5.722489 h -1.097058 v 7.234649 h 1.097058 v -0.622654 h 11.178125 z"
       style="stroke-width:0.529009"
       id="path927" />
  </g>
</svg>
