<?xml version="1.0" encoding="UTF-8" standalone="no"?>
<svg
   xmlns:dc="http://purl.org/dc/elements/1.1/"
   xmlns:cc="http://creativecommons.org/ns#"
   xmlns:rdf="http://www.w3.org/1999/02/22-rdf-syntax-ns#"
   xmlns:svg="http://www.w3.org/2000/svg"
   xmlns="http://www.w3.org/2000/svg"
   xmlns:sodipodi="http://sodipodi.sourceforge.net/DTD/sodipodi-0.dtd"
   xmlns:inkscape="http://www.inkscape.org/namespaces/inkscape"
   width="300"
   height="300"
   viewBox="0 0 79.374999 79.374999"
   version="1.1"
   id="svg8"
   sodipodi:docname="原子分解装置.svg"
   inkscape:version="1.0.2-2 (e86c870879, 2021-01-15)">
  <sodipodi:namedview
     pagecolor="#ffffff"
     bordercolor="#666666"
     borderopacity="1"
     objecttolerance="10"
     gridtolerance="10"
     guidetolerance="10"
     inkscape:pageopacity="0"
     inkscape:pageshadow="2"
     inkscape:window-width="1920"
     inkscape:window-height="1001"
     id="namedview843"
     showgrid="false"
     units="px"
     inkscape:zoom="1.4271465"
     inkscape:cx="343.5447"
     inkscape:cy="247.00785"
     inkscape:window-x="-9"
     inkscape:window-y="-9"
     inkscape:window-maximized="1"
     inkscape:current-layer="svg8"
     inkscape:document-rotation="0" />
  <defs
     id="defs2" />
  <metadata
     id="metadata5">
    <rdf:RDF>
      <cc:Work
         rdf:about="">
        <dc:format>image/svg+xml</dc:format>
        <dc:type
           rdf:resource="http://purl.org/dc/dcmitype/StillImage" />
        <dc:title />
      </cc:Work>
    </rdf:RDF>
  </metadata>
  <path
     id="rect837"
     style="fill:#808080;fill-opacity:1;stroke:#4886b4;stroke-width:0.186326;stroke-linecap:round;stroke-linejoin:round;paint-order:stroke fill markers"
     d="M 5.9617072,0.09316314 H 73.413294 c 3.251173,0 5.868544,2.61737066 5.868544,5.86854406 V 73.413294 c 0,3.251173 -2.617371,5.868544 -5.868544,5.868544 H 5.9617072 c -3.2511734,0 -5.86854406,-2.617371 -5.86854406,-5.868544 V 5.9617072 c 0,-3.2511734 2.61737066,-5.86854406 5.86854406,-5.86854406 z" />
  <g
     aria-label="a→p+n+e"
     id="text835"
     style="font-style:italic;font-variant:normal;font-weight:bold;font-stretch:normal;font-size:15.8299px;line-height:1.25;font-family:'Source Han Serif';-inkscape-font-specification:'Source Han Serif Bold Italic';word-spacing:0px;fill:#fff648;fill-opacity:1;stroke-width:0.24734">
    <path
       d="m 7.4550234,18.8595 c -0.8389846,0.601536 -1.2822218,0.838985 -1.8046085,0.838985 -0.7598352,0 -1.1872425,-0.443238 -0.9972837,-1.377202 C 4.8589199,17.33983 5.476286,16.611654 6.8218275,16.120927 7.1067657,16.010118 7.5816626,15.883479 8.0882194,15.74101 Z m 3.2134696,0.522387 c -0.364088,0.379917 -0.585706,0.522386 -0.8231547,0.522386 -0.3482578,0 -0.5223867,-0.237448 -0.3799176,-0.949794 l 0.8231553,-4.084114 c 0.443237,-2.216186 -0.253279,-3.11849 -2.3269958,-3.11849 -2.200356,0 -3.6883666,0.886474 -4.1790935,2.311165 0,0.474897 0.2849382,0.728176 0.8073249,0.728176 0.5382166,0 1.0289435,-0.348258 1.266392,-1.218903 l 0.4590671,-1.139752 c 0.2849382,-0.06332 0.5698764,-0.09498 0.8389847,-0.09498 1.1872424,0 1.5196703,0.459067 1.1872424,2.137037 l -0.158299,0.807325 c -0.6490259,0.142469 -1.3138816,0.316598 -1.8204384,0.474897 -2.5961036,0.759835 -3.482578,1.5355 -3.7358564,2.849382 -0.2691083,1.329711 0.5382166,2.121206 1.8679282,2.121206 1.1714126,0 1.8837581,-0.490727 2.9443614,-1.408861 0.03166,0.854815 0.4748969,1.393031 1.4405208,1.393031 0.8389847,0 1.4563506,-0.300768 2.0262276,-1.092263 z"
       style="font-style:italic;font-variant:normal;font-weight:bold;font-stretch:normal;font-size:15.8299px;font-family:'Source Han Serif';-inkscape-font-specification:'Source Han Serif Bold Italic';fill:#fff648;fill-opacity:1;stroke-width:0.24734"
       id="path2719" />
    <path
       d="m 12.520573,14.838705 h 12.853878 c -1.187242,0.775665 -2.453634,1.836269 -3.498407,2.944362 l 0.490727,0.474897 c 1.377201,-1.472181 3.260959,-2.881042 4.891439,-3.799176 -1.250563,-0.918134 -2.596104,-2.326995 -3.371769,-3.799176 l -0.680686,0.474897 c 0.569877,1.060603 1.456351,2.168696 2.326995,2.944361 H 12.678872 Z"
       style="font-style:italic;font-variant:normal;font-weight:bold;font-stretch:normal;font-size:15.8299px;font-family:'Source Han Serif';-inkscape-font-specification:'Source Han Serif Bold Italic';fill:#fff648;fill-opacity:1;stroke-width:0.24734"
       id="path2721" />
    <path
       d="m 31.89634,13.461504 c 0.775665,-0.601536 1.329711,-0.728175 1.836268,-0.728175 1.313882,0 1.915418,0.997283 1.424691,3.498408 -0.522387,2.580273 -1.63048,3.482578 -2.928531,3.482578 -0.601537,0 -1.076434,-0.14247 -1.472181,-0.585707 z m 0.126639,-1.5355 -0.189959,-0.158299 -3.19764,0.965624 -0.07915,0.395747 1.250562,0.126639 c -0.110809,0.759836 -0.221619,1.345542 -0.427407,2.374485 l -1.013114,5.097228 c -0.189959,0.965624 -0.443237,2.105377 -0.680686,3.24513 l -1.234732,0.142469 -0.09498,0.474897 h 4.66982 l 0.09498,-0.474897 -1.329712,-0.158299 c 0.205789,-1.139753 0.427407,-2.279506 0.617366,-3.2293 l 0.221619,-1.092263 c 0.522386,0.807325 1.282222,1.092263 2.105376,1.092263 2.089547,0 4.099944,-1.741289 4.653991,-4.543181 0.569876,-2.801892 -0.617366,-4.432372 -2.532784,-4.432372 -0.981454,0 -1.994567,0.364088 -2.928532,1.218902 z"
       style="font-style:italic;font-variant:normal;font-weight:bold;font-stretch:normal;font-size:15.8299px;font-family:'Source Han Serif';-inkscape-font-specification:'Source Han Serif Bold Italic';fill:#fff648;fill-opacity:1;stroke-width:0.24734"
       id="path2723" />
    <path
       d="m 47.36214,14.268829 h -3.735856 l 0.775665,-3.878325 h -0.902304 l -0.775665,3.878325 h -3.751686 l -0.158299,0.854815 h 3.751686 l -0.807325,3.973304 h 0.902304 l 0.807325,-3.973304 h 3.735856 z"
       style="font-style:italic;font-variant:normal;font-weight:bold;font-stretch:normal;font-size:15.8299px;font-family:'Source Han Serif';-inkscape-font-specification:'Source Han Serif Bold Italic';fill:#fff648;fill-opacity:1;stroke-width:0.24734"
       id="path2725" />
    <path
       d="m 56.116066,19.856784 c 0.158299,-0.902305 0.411577,-2.200356 0.585706,-3.102661 l 0.379918,-1.931248 c 0.427407,-2.121206 -0.316598,-3.071 -1.804609,-3.071 -1.028943,0 -2.089546,0.443237 -3.324279,1.59882 l 0.174129,-1.440521 -0.189959,-0.142469 -3.229299,0.965624 -0.07915,0.395747 1.218903,0.126639 c -0.09498,0.759836 -0.205789,1.329712 -0.411578,2.358655 l -0.221618,1.139753 c -0.174129,0.870645 -0.459067,2.184526 -0.649026,3.086831 l -1.187243,0.142469 -0.09498,0.490727 h 4.337392 l 0.09498,-0.490727 -0.997284,-0.126639 c 0.158299,-0.902305 0.411578,-2.232016 0.585706,-3.102661 l 0.569877,-2.849382 c 0.918134,-0.712345 1.693799,-1.028943 2.279505,-1.028943 0.854815,0 1.155583,0.474897 0.886475,1.852098 l -0.411578,2.026227 c -0.174128,0.902305 -0.459067,2.200356 -0.664855,3.086831 l -1.139753,0.142469 -0.09498,0.490727 h 4.337393 l 0.09498,-0.490727 z"
       style="font-style:italic;font-variant:normal;font-weight:bold;font-stretch:normal;font-size:15.8299px;font-family:'Source Han Serif';-inkscape-font-specification:'Source Han Serif Bold Italic';fill:#fff648;fill-opacity:1;stroke-width:0.24734"
       id="path2727" />
    <path
       d="m 67.68771,14.268829 h -3.735857 l 0.775665,-3.878325 h -0.902304 l -0.775665,3.878325 h -3.751686 l -0.158299,0.854815 h 3.751686 l -0.807325,3.973304 h 0.902304 l 0.807325,-3.973304 h 3.735857 z"
       style="font-style:italic;font-variant:normal;font-weight:bold;font-stretch:normal;font-size:15.8299px;font-family:'Source Han Serif';-inkscape-font-specification:'Source Han Serif Bold Italic';fill:#fff648;fill-opacity:1;stroke-width:0.24734"
       id="path2729" />
    <path
       d="m 70.837851,15.61437 c 0.569876,-2.311165 1.630479,-3.276789 2.627763,-3.276789 0.965624,0 1.472181,0.823155 1.218902,2.105377 -0.158299,0.807325 -0.411577,1.171412 -1.139752,1.171412 z m 5.366336,0.585707 c 0.126639,-0.269109 0.221618,-0.569877 0.300768,-0.981454 0.411577,-1.994567 -0.617366,-3.466748 -2.786063,-3.466748 -2.216186,0 -4.62233,1.63048 -5.192207,4.479862 -0.585706,2.881041 0.902305,4.495691 3.387599,4.495691 1.56716,0 2.912701,-0.744005 3.815006,-2.042057 l -0.284939,-0.221619 c -0.696515,0.744006 -1.47218,1.218903 -2.611933,1.218903 -1.5355,0 -2.532784,-1.060604 -2.105377,-3.482578 z"
       style="font-style:italic;font-variant:normal;font-weight:bold;font-stretch:normal;font-size:15.8299px;font-family:'Source Han Serif';-inkscape-font-specification:'Source Han Serif Bold Italic';fill:#fff648;fill-opacity:1;stroke-width:0.24734"
       id="path2731" />
  </g>
  <g
     aria-label="原子分解装置"
     transform="scale(0.79418604,1.2591508)"
     id="text847"
     style="font-size:15.1086px;line-height:1.25;font-family:'Source Han Code JP';-inkscape-font-specification:'Source Han Code JP';word-spacing:0px;fill:#ffffff;fill-opacity:1;stroke:#ffffff;stroke-width:0.539593;stroke-miterlimit:4;stroke-dasharray:none;stroke-opacity:1">
    <path
       d="m 10.257753,39.892635 c -0.6949951,1.133145 -1.8130315,2.251181 -2.9310679,2.976394 0.2568462,0.151086 0.7252128,0.468366 0.9216246,0.664778 1.0878192,-0.815864 2.2813983,-2.069878 3.0670453,-3.339 z m -0.04533,-3.067046 h 6.239851 v 1.389991 h -6.239851 z m 0,-2.220964 h 6.239851 v 1.374882 h -6.239851 z m 7.388105,4.502363 v -5.39377 h -4.154865 c 0.166195,-0.453258 0.332389,-0.982059 0.483475,-1.480643 h 4.895186 V 31.220299 H 6.6467981 v 4.321059 c 0,2.37205 -0.1208688,5.665725 -1.4504255,8.022666 0.2870634,0.105761 0.75543,0.392824 0.9669504,0.574127 1.3899911,-2.462701 1.5864029,-6.088765 1.5864029,-8.581684 v -3.323892 h 4.8649691 c -0.07554,0.453258 -0.21152,1.012276 -0.347498,1.480643 H 9.1094999 v 5.39377 h 3.6562811 v 3.837584 c 0,0.181303 -0.06043,0.256846 -0.287063,0.256846 -0.226629,0.01511 -1.012277,0.01511 -1.888575,-0.01511 0.135977,0.287064 0.302172,0.694996 0.347497,0.982059 1.163363,0 1.888575,0 2.341833,-0.166194 0.453258,-0.151086 0.574127,-0.453258 0.574127,-1.042493 V 39.106988 Z M 15.15294,40.37611 c 1.133145,0.906516 2.447593,2.205856 3.02172,3.097263 L 19.081176,42.85392 C 18.461723,41.962513 17.132166,40.708499 16.01413,39.8322 Z"
       style="fill:#ffffff;fill-opacity:1;stroke:#ffffff;stroke-width:0.539593;stroke-miterlimit:4;stroke-dasharray:none;stroke-opacity:1"
       id="path849" />
    <path
       d="m 34.114204,37.082435 h -6.224743 v -1.480643 c 1.677054,-0.906516 3.656281,-2.311615 4.940512,-3.610955 l -0.815865,-0.619452 -0.271954,0.06043 h -9.684613 v 1.087819 h 8.506142 c -0.876299,0.75543 -2.039661,1.556186 -3.112372,2.145421 h -0.710104 v 2.417376 h -6.239852 v 1.118037 h 6.239852 v 4.517471 c 0,0.271955 -0.09065,0.347498 -0.423041,0.362606 -0.31728,0.01511 -1.435317,0.01511 -2.644005,-0.03022 0.196412,0.317281 0.392824,0.830973 0.483476,1.148254 1.435317,0.01511 2.417375,-0.01511 2.976394,-0.196412 0.559018,-0.181303 0.75543,-0.528801 0.75543,-1.284231 v -4.517471 h 6.224743 z"
       style="fill:#ffffff;fill-opacity:1;stroke:#ffffff;stroke-width:0.539593;stroke-miterlimit:4;stroke-dasharray:none;stroke-opacity:1"
       id="path851" />
    <path
       d="m 39.764791,30.691498 c -0.936733,2.311615 -2.613787,4.396602 -4.517471,5.665724 0.271955,0.211521 0.75543,0.634562 0.951842,0.876299 1.903683,-1.420208 3.656281,-3.671389 4.7441,-6.209634 z m -2.069878,5.363552 v 1.08782 h 3.082155 c -0.347498,2.538244 -1.178471,4.940512 -4.728992,6.118982 0.256846,0.241738 0.574127,0.694996 0.725213,0.982059 3.837584,-1.389991 4.804534,-4.124647 5.197358,-7.101041 h 3.898019 c -0.181304,3.807367 -0.392824,5.318227 -0.785648,5.695942 -0.135977,0.166194 -0.31728,0.196411 -0.634561,0.196411 -0.347498,0 -1.284231,-0.01511 -2.26629,-0.10576 0.211521,0.332389 0.347498,0.785647 0.377715,1.118037 0.936734,0.04532 1.873467,0.07554 2.37205,0.03022 0.528801,-0.06043 0.846082,-0.151086 1.163363,-0.528801 0.513692,-0.574127 0.740321,-2.311616 0.951841,-6.949956 0.01511,-0.151086 0.03022,-0.54391 0.03022,-0.54391 z m 6.224743,-4.970729 c 1.118037,2.236073 3.02172,4.668557 4.683666,6.013223 0.211521,-0.317281 0.634561,-0.75543 0.921625,-0.997168 -1.631729,-1.148253 -3.56563,-3.414543 -4.547689,-5.439096 z"
       style="fill:#ffffff;fill-opacity:1;stroke:#ffffff;stroke-width:0.539593;stroke-miterlimit:4;stroke-dasharray:none;stroke-opacity:1"
       id="path853" />
    <path
       d="m 54.752495,39.348725 v -1.767706 h 1.359774 v 1.767706 z m -2.175639,-1.767706 h 1.359774 v 1.767706 h -1.389991 c 0.03022,-0.407932 0.03022,-0.815864 0.03022,-1.178471 z m 2.26629,-4.970729 c -0.181303,0.528801 -0.438149,1.118036 -0.664778,1.571294 h -1.737489 c 0.271955,-0.483475 0.528801,-1.012276 0.75543,-1.571294 z m -0.09065,2.462701 h 1.359774 v 1.661946 h -1.359774 z m -2.175639,0 h 1.359774 v 1.661946 h -1.359774 z m 10.409825,-2.976394 c -0.09065,1.752598 -0.226629,2.447593 -0.392823,2.644005 -0.10576,0.135978 -0.226629,0.151086 -0.423041,0.135978 -0.21152,0 -0.770539,0 -1.359774,-0.06043 0.135977,0.256846 0.226629,0.64967 0.256846,0.936733 0.619453,0.03022 1.238905,0.04533 1.556186,0.01511 0.392824,-0.03022 0.619453,-0.135977 0.815864,-0.377715 0.33239,-0.362606 0.453258,-1.329557 0.574127,-3.822476 0.01511,-0.135977 0.01511,-0.42304 0.01511,-0.42304 H 57.50226 v 0.951841 h 2.039661 c -0.287064,1.420209 -0.891408,2.613788 -2.477811,3.308784 v -1.223797 h -1.888575 c 0.347498,-0.64967 0.694996,-1.420208 0.951842,-2.084987 l -0.664778,-0.42304 -0.166195,0.04533 h -1.767706 c 0.120869,-0.362606 0.241738,-0.740321 0.347498,-1.118036 l -1.042494,-0.226629 c -0.453258,1.843249 -1.284231,3.626064 -2.356941,4.774317 0.241737,0.151086 0.679887,0.498584 0.846081,0.679887 0.105761,-0.120868 0.211521,-0.256846 0.317281,-0.392823 v 2.734656 c 0,1.692164 -0.10576,3.928236 -1.118036,5.514639 0.226629,0.10576 0.649669,0.347498 0.800755,0.513693 0.710105,-1.08782 1.027385,-2.568462 1.163363,-3.973562 h 3.626064 v 2.719548 c 0,0.196412 -0.07554,0.256846 -0.287064,0.271955 -0.196412,0.01511 -0.876299,0.01511 -1.661946,-0.01511 0.151086,0.256846 0.317281,0.694996 0.362607,0.951842 1.042493,0 1.646837,-0.01511 2.024552,-0.181303 0.392824,-0.166195 0.513692,-0.483476 0.513692,-1.027385 v -7.524083 c 0.211521,0.181303 0.483476,0.513693 0.604344,0.75543 1.858358,-0.846081 2.583571,-2.296507 2.900851,-4.079322 z m 1.450426,8.20397 h -2.870634 v -1.858358 h 2.613788 v -0.96695 h -2.613788 v -1.541077 h -1.072711 v 1.541077 h -1.314448 c 0.120869,-0.392824 0.226629,-0.800756 0.317281,-1.208688 l -0.951842,-0.196412 c -0.271955,1.284231 -0.725213,2.523136 -1.389991,3.384326 0.256846,0.120869 0.694996,0.33239 0.876299,0.468367 0.287063,-0.407932 0.559018,-0.921625 0.785647,-1.480643 h 1.677054 v 1.858358 h -3.172805 v 0.96695 h 3.172805 v 2.825308 h 1.072711 v -2.825308 h 2.870634 z"
       style="fill:#ffffff;fill-opacity:1;stroke:#ffffff;stroke-width:0.539593;stroke-miterlimit:4;stroke-dasharray:none;stroke-opacity:1"
       id="path855" />
    <path
       d="M 74.544731,35.828421 H 71.41725 v 0.982059 h 7.493866 v -0.982059 h -3.248349 v -2.387158 h 3.701607 v -0.997168 h -3.701607 v -2.069878 h -1.118036 v 2.069878 h -3.595847 v 0.997168 h 3.595847 z m -4.351277,-5.454204 h -1.042493 v 7.055716 h 1.042493 z m -1.51086,2.387159 c -0.377715,-0.483475 -1.193579,-1.118037 -1.858358,-1.541077 l -0.679887,0.634561 c 0.664779,0.453258 1.465534,1.133145 1.828141,1.61662 z m 0.06043,1.601511 c -1.148253,0.528801 -2.281398,1.027385 -3.082154,1.344666 l 0.392824,0.921624 c 0.876298,-0.392823 1.918792,-0.876299 2.915959,-1.344665 z m 8.9594,5.18225 c -0.664778,0.483475 -1.752598,1.133145 -2.644005,1.571294 -0.589235,-0.528801 -1.072711,-1.148253 -1.450426,-1.82814 h 5.741268 v -0.891408 h -6.209634 v -1.208688 h -1.118037 v 1.208688 h -6.134091 v 0.891408 h 5.167141 c -1.4051,0.936733 -3.505195,1.692163 -5.378661,2.039661 0.21152,0.21152 0.498583,0.574127 0.634561,0.830973 0.951842,-0.211521 1.964118,-0.528801 2.91596,-0.936733 v 1.646837 c -0.664779,0.09065 -1.284231,0.166194 -1.797924,0.226629 l 0.196412,0.96695 c 1.646837,-0.21152 3.958453,-0.543909 6.164309,-0.86119 l -0.04533,-0.936733 c -1.163362,0.166195 -2.356942,0.317281 -3.45987,0.468367 v -1.994336 c 0.846082,-0.42304 1.601512,-0.921624 2.205856,-1.450425 h 0.03022 c 1.223797,2.523136 3.399435,4.20019 6.390938,4.940512 0.135977,-0.271955 0.423041,-0.694996 0.664778,-0.921625 -1.480642,-0.302172 -2.779982,-0.86119 -3.837584,-1.631728 0.891407,-0.407933 1.964118,-0.982059 2.779982,-1.541078 z"
       style="fill:#ffffff;fill-opacity:1;stroke:#ffffff;stroke-width:0.539593;stroke-miterlimit:4;stroke-dasharray:none;stroke-opacity:1"
       id="path857" />
    <path
       d="m 86.450278,31.824643 h 2.462701 v 1.344665 h -2.462701 z m -1.042494,1.344665 h -2.402267 v -1.344665 h 2.402267 z m 4.547689,-1.344665 h 2.538244 v 1.344665 h -2.538244 z m 1.9339,6.270068 h -6.118982 v -0.815864 h 6.118982 z m 0,1.495752 H 85.770391 V 38.75949 h 6.118982 z m 0,1.525968 H 85.770391 V 40.27035 h 6.118982 z m -7.161476,-4.53258 v 5.212467 h 8.234187 v -5.212467 h -4.895186 c 0.04533,-0.271954 0.10576,-0.559018 0.151086,-0.876298 h 5.998114 V 34.816145 H 88.36907 c 0.04533,-0.271955 0.07554,-0.559018 0.120869,-0.815864 h 5.106706 v -2.991503 h -11.64873 v 2.991503 h 5.408879 c -0.03022,0.256846 -0.06043,0.543909 -0.09065,0.815864 h -6.013223 v 0.891408 h 5.877246 c -0.04533,0.302172 -0.105761,0.604344 -0.151086,0.876298 z M 94.593813,42.6424 H 83.201929 v -5.83192 h -1.118037 v 7.372997 h 1.118037 v -0.634561 h 11.391884 z"
       style="fill:#ffffff;fill-opacity:1;stroke:#ffffff;stroke-width:0.539593;stroke-miterlimit:4;stroke-dasharray:none;stroke-opacity:1"
       id="path859" />
  </g>
</svg>
