<?xml version="1.0" encoding="UTF-8" standalone="no"?>
<svg
   xmlns:dc="http://purl.org/dc/elements/1.1/"
   xmlns:cc="http://creativecommons.org/ns#"
   xmlns:rdf="http://www.w3.org/1999/02/22-rdf-syntax-ns#"
   xmlns:svg="http://www.w3.org/2000/svg"
   xmlns="http://www.w3.org/2000/svg"
   xmlns:sodipodi="http://sodipodi.sourceforge.net/DTD/sodipodi-0.dtd"
   xmlns:inkscape="http://www.inkscape.org/namespaces/inkscape"
   width="300"
   height="300"
   viewBox="0 0 79.374999 79.374999"
   version="1.1"
   id="svg8"
   sodipodi:docname="粒子中性子化装置.svg"
   inkscape:version="1.0.2-2 (e86c870879, 2021-01-15)">
  <sodipodi:namedview
     pagecolor="#ffffff"
     bordercolor="#666666"
     borderopacity="1"
     objecttolerance="10"
     gridtolerance="10"
     guidetolerance="10"
     inkscape:pageopacity="0"
     inkscape:pageshadow="2"
     inkscape:window-width="1920"
     inkscape:window-height="1001"
     id="namedview843"
     showgrid="false"
     units="px"
     inkscape:zoom="1.4271465"
     inkscape:cx="343.5447"
     inkscape:cy="247.00785"
     inkscape:window-x="-9"
     inkscape:window-y="-9"
     inkscape:window-maximized="1"
     inkscape:current-layer="svg8"
     inkscape:document-rotation="0" />
  <defs
     id="defs2" />
  <metadata
     id="metadata5">
    <rdf:RDF>
      <cc:Work
         rdf:about="">
        <dc:format>image/svg+xml</dc:format>
        <dc:type
           rdf:resource="http://purl.org/dc/dcmitype/StillImage" />
        <dc:title />
      </cc:Work>
    </rdf:RDF>
  </metadata>
  <path
     id="rect837"
     style="fill:#808080;fill-opacity:1;stroke:#4886b4;stroke-width:0.186326;stroke-linecap:round;stroke-linejoin:round;paint-order:stroke fill markers"
     d="M 5.9617072,0.09316314 H 73.413294 c 3.251173,0 5.868544,2.61737066 5.868544,5.86854406 V 73.413294 c 0,3.251173 -2.617371,5.868544 -5.868544,5.868544 H 5.9617072 c -3.2511734,0 -5.86854406,-2.617371 -5.86854406,-5.868544 V 5.9617072 c 0,-3.2511734 2.61737066,-5.86854406 5.86854406,-5.86854406 z" />
  <g
     aria-label="p+n+e→3n"
     transform="scale(0.94065413,1.06309)"
     id="text835"
     style="font-style:italic;font-variant:normal;font-weight:bold;font-stretch:normal;font-size:14.8905px;line-height:1.25;font-family:'Source Han Serif';-inkscape-font-specification:'Source Han Serif Bold Italic';word-spacing:0px;fill:#fff648;fill-opacity:1;stroke-width:0.232661">
    <path
       d="m 6.6075354,12.662603 c 0.7296345,-0.565839 1.250802,-0.684963 1.727298,-0.684963 1.2359115,0 1.8017506,0.938101 1.340145,3.2908 -0.4913865,2.427152 -1.5337215,3.27591 -2.7547425,3.27591 -0.565839,0 -1.012554,-0.134014 -1.3848165,-0.550948 z m 0.119124,-1.444379 -0.178686,-0.148905 -3.007881,0.908321 -0.074452,0.372262 1.1763495,0.119124 c -0.1042335,0.714744 -0.208467,1.265693 -0.4020435,2.233575 l -0.952992,4.794741 c -0.178686,0.908321 -0.416934,1.980437 -0.6402915,3.052553 l -1.161459,0.134014 -0.089343,0.446715 h 4.3926975 l 0.089343,-0.446715 -1.250802,-0.148905 c 0.1935765,-1.072116 0.4020435,-2.144232 0.5807295,-3.037662 l 0.208467,-1.027444 c 0.4913865,0.759415 1.2061305,1.027444 1.9804365,1.027444 1.965546,0 3.8566391,-1.637955 4.3778071,-4.273573 0.536058,-2.635619 -0.58073,-4.16934 -2.3824801,-4.16934 -0.923211,0 -1.876203,0.342481 -2.7547425,1.146568 z"
       style="font-style:italic;font-variant:normal;font-weight:bold;font-stretch:normal;font-size:14.8905px;font-family:'Source Han Serif';-inkscape-font-specification:'Source Han Serif Bold Italic';fill:#fff648;fill-opacity:1;stroke-width:0.232661"
       id="path1515" />
    <path
       d="M 21.155543,13.422018 H 17.641385 L 18.37102,9.7738457 h -0.848759 l -0.729634,3.6481723 h -3.529049 l -0.148905,0.804087 h 3.529049 l -0.759416,3.737516 h 0.848759 l 0.759415,-3.737516 h 3.514158 z"
       style="font-style:italic;font-variant:normal;font-weight:bold;font-stretch:normal;font-size:14.8905px;font-family:'Source Han Serif';-inkscape-font-specification:'Source Han Serif Bold Italic';fill:#fff648;fill-opacity:1;stroke-width:0.232661"
       id="path1517" />
    <path
       d="m 29.389979,18.678365 c 0.148905,-0.848759 0.387153,-2.06978 0.550948,-2.918538 l 0.357372,-1.816641 c 0.402044,-1.995327 -0.29781,-2.888757 -1.697517,-2.888757 -0.967882,0 -1.965546,0.416934 -3.127005,1.50394 l 0.163796,-1.355035 -0.178686,-0.134015 -3.037662,0.908321 -0.07445,0.372262 1.146569,0.119124 c -0.08934,0.714744 -0.193577,1.250802 -0.387153,2.218685 l -0.208467,1.072116 c -0.163796,0.818977 -0.431825,2.054889 -0.610511,2.903647 l -1.116787,0.134015 -0.08934,0.461605 h 4.079997 l 0.08934,-0.461605 -0.938102,-0.119124 c 0.148905,-0.848759 0.387153,-2.099561 0.550949,-2.918538 l 0.536058,-2.68029 c 0.863649,-0.670073 1.593283,-0.967883 2.144232,-0.967883 0.804087,0 1.087006,0.446715 0.833868,1.742189 l -0.387153,1.905984 c -0.163796,0.848758 -0.431825,2.069779 -0.625401,2.903647 l -1.072116,0.134015 -0.08934,0.461605 h 4.079997 l 0.08934,-0.461605 z"
       style="font-style:italic;font-variant:normal;font-weight:bold;font-stretch:normal;font-size:14.8905px;font-family:'Source Han Serif';-inkscape-font-specification:'Source Han Serif Bold Italic';fill:#fff648;fill-opacity:1;stroke-width:0.232661"
       id="path1519" />
    <path
       d="M 40.274923,13.422018 H 36.760765 L 37.4904,9.7738457 h -0.848759 l -0.729634,3.6481723 h -3.529049 l -0.148905,0.804087 h 3.529049 l -0.759416,3.737516 h 0.848759 l 0.759415,-3.737516 h 3.514158 z"
       style="font-style:italic;font-variant:normal;font-weight:bold;font-stretch:normal;font-size:14.8905px;font-family:'Source Han Serif';-inkscape-font-specification:'Source Han Serif Bold Italic';fill:#fff648;fill-opacity:1;stroke-width:0.232661"
       id="path1521" />
    <path
       d="m 43.238121,14.687711 c 0.536058,-2.174013 1.533721,-3.082334 2.471823,-3.082334 0.90832,0 1.384816,0.774306 1.146568,1.980437 -0.148905,0.759415 -0.387153,1.101897 -1.072116,1.101897 z M 48.286,15.238659 c 0.119124,-0.253138 0.208467,-0.536058 0.28292,-0.923211 0.387153,-1.876203 -0.58073,-3.261019 -2.620728,-3.261019 -2.08467,0 -4.348026,1.533721 -4.884084,4.214011 -0.550949,2.710071 0.848758,4.228902 3.186567,4.228902 1.474159,0 2.739852,-0.699853 3.58861,-1.920874 l -0.268029,-0.208467 c -0.655182,0.699853 -1.384816,1.146568 -2.456932,1.146568 -1.444379,0 -2.38248,-0.997663 -1.980437,-3.27591 z"
       style="font-style:italic;font-variant:normal;font-weight:bold;font-stretch:normal;font-size:14.8905px;font-family:'Source Han Serif';-inkscape-font-specification:'Source Han Serif Bold Italic';fill:#fff648;fill-opacity:1;stroke-width:0.232661"
       id="path1523" />
    <path
       d="m 49.834613,13.958076 h 12.091086 c -1.116787,0.729635 -2.308027,1.727298 -3.2908,2.769633 l 0.461605,0.446715 c 1.295474,-1.384816 3.067443,-2.710071 4.601165,-3.57372 -1.17635,-0.863649 -2.442042,-2.188903 -3.171677,-3.57372 l -0.640291,0.446715 c 0.536058,0.997664 1.369926,2.039999 2.188903,2.769633 H 49.983518 Z"
       style="font-style:italic;font-variant:normal;font-weight:bold;font-stretch:normal;font-size:14.8905px;font-family:'Source Han Serif';-inkscape-font-specification:'Source Han Serif Bold Italic';fill:#fff648;fill-opacity:1;stroke-width:0.232661"
       id="path1525" />
    <path
       d="m 68.343477,9.0144302 c 0.223357,-0.044671 0.446715,-0.074452 0.655182,-0.074452 1.20613,0 1.742188,0.744525 1.459269,2.1144513 -0.312701,1.578393 -1.384817,2.367589 -2.769633,2.367589 h -0.550949 l -0.119124,0.59562 h 0.655182 c 1.593284,0 2.263356,0.863649 1.935765,2.456933 -0.3127,1.608174 -1.325254,2.471823 -2.918538,2.471823 -0.253138,0 -0.476496,-0.02978 -0.714744,-0.08934 v -1.280583 c 0.01489,-0.87854 -0.223357,-1.161459 -0.774306,-1.161459 -0.342481,0 -0.714744,0.178686 -0.967882,0.59562 -0.134015,1.637955 0.90832,2.486713 2.918538,2.486713 2.38248,0 4.139559,-1.265692 4.496931,-3.067443 0.282919,-1.414597 -0.327591,-2.442042 -2.36759,-2.769633 1.905984,-0.416934 2.873867,-1.399707 3.127005,-2.650509 0.29781,-1.5337213 -0.61051,-2.6058373 -2.784523,-2.6058373 -1.667736,0 -3.26102,0.714744 -3.737516,2.3526993 0.08934,0.3127 0.357372,0.491386 0.699854,0.491386 0.506277,0 0.923211,-0.268029 1.19124,-0.967882 z"
       style="font-style:italic;font-variant:normal;font-weight:bold;font-stretch:normal;font-size:14.8905px;font-family:'Source Han Serif';-inkscape-font-specification:'Source Han Serif Bold Italic';fill:#fff648;fill-opacity:1;stroke-width:0.232661"
       id="path1527" />
    <path
       d="m 80.628136,18.678365 c 0.148905,-0.848759 0.387153,-2.06978 0.550949,-2.918538 l 0.357372,-1.816641 c 0.402043,-1.995327 -0.29781,-2.888757 -1.697517,-2.888757 -0.967883,0 -1.965546,0.416934 -3.127005,1.50394 l 0.163795,-1.355035 -0.178686,-0.134015 -3.037662,0.908321 -0.07445,0.372262 1.146568,0.119124 c -0.08934,0.714744 -0.193576,1.250802 -0.387153,2.218685 l -0.208467,1.072116 c -0.163795,0.818977 -0.431824,2.054889 -0.61051,2.903647 l -1.116788,0.134015 -0.08934,0.461605 h 4.079997 l 0.08934,-0.461605 -0.938101,-0.119124 c 0.148905,-0.848759 0.387153,-2.099561 0.550948,-2.918538 l 0.536058,-2.68029 c 0.863649,-0.670073 1.593284,-0.967883 2.144232,-0.967883 0.804087,0 1.087007,0.446715 0.833868,1.742189 l -0.387153,1.905984 c -0.163795,0.848758 -0.431824,2.069779 -0.625401,2.903647 l -1.072116,0.134015 -0.08934,0.461605 h 4.079997 l 0.08934,-0.461605 z"
       style="font-style:italic;font-variant:normal;font-weight:bold;font-stretch:normal;font-size:14.8905px;font-family:'Source Han Serif';-inkscape-font-specification:'Source Han Serif Bold Italic';fill:#fff648;fill-opacity:1;stroke-width:0.232661"
       id="path1529" />
  </g>
  <g
     aria-label="粒子中性子化
   装置"
     transform="scale(0.82801174,1.2077123)"
     id="text841"
     style="font-size:14.8251px;line-height:1.25;font-family:'Source Han Code JP';-inkscape-font-specification:'Source Han Code JP';word-spacing:0px;fill:#ffffff;fill-opacity:1;stroke:#ffffff;stroke-width:0.529009;stroke-linecap:round;stroke-linejoin:round;stroke-miterlimit:4;stroke-dasharray:none;stroke-opacity:1">
    <path
       d="m 10.152695,29.490879 v 1.052582 h 7.545976 V 29.490879 H 14.333373 V 26.67411 h -1.111882 v 2.816769 z m 2.890895,8.064854 c -0.0593,-1.690061 -0.444753,-4.195503 -0.993282,-6.167242 l -1.022932,0.192727 c 0.518878,1.956913 0.904331,4.50683 0.933981,6.152416 z M 9.1890636,27.474665 c -0.1779012,0.948806 -0.5633538,2.357191 -0.8746809,3.202222 l 0.7560801,0.237201 C 9.4114401,30.113533 9.841368,28.794099 10.16752,27.726692 Z M 6.2685189,30.706537 C 6.1943934,29.846681 5.838591,28.556897 5.4234882,27.563616 l -0.8302056,0.207551 c 0.4002777,0.993282 0.7264299,2.312716 0.7857303,3.172571 z m 3.7952251,4.966408 C 9.7524174,35.302318 8.3736831,33.849458 7.8844548,33.38988 V 32.6338 H 10.034094 V 31.610868 H 7.8844548 v -5.070184 h -1.037757 v 5.070184 H 4.504332 V 32.6338 h 2.1496395 c -0.5337036,1.615936 -1.4676849,3.454248 -2.3571909,4.462355 0.1927263,0.281677 0.4595781,0.741255 0.5781789,1.067407 0.7116048,-0.874681 1.4232096,-2.283065 1.9717383,-3.69145 v 5.574238 h 1.037757 v -5.470462 c 0.5633538,0.681955 1.2304833,1.54181 1.4973351,2.001388 z m 5.08501,2.757469 c 0.518878,-1.882788 1.082232,-4.744032 1.45286,-6.982622 L 15.40078,31.21059 c -0.252026,2.20894 -0.81538,5.322211 -1.304608,7.219824 H 9.5152158 v 1.037757 h 8.4206572 v -1.037757 z"
       style="fill:#ffffff;fill-opacity:1;stroke:#ffffff;stroke-width:0.529009;stroke-linecap:round;stroke-linejoin:round;stroke-miterlimit:4;stroke-dasharray:none;stroke-opacity:1"
       id="path1532" />
    <path
       d="m 32.686818,33.108203 h -6.107941 v -1.45286 c 1.645586,-0.889506 3.587674,-2.26824 4.847808,-3.543199 l -0.800555,-0.607829 -0.266852,0.0593 h -9.502889 v 1.067407 h 8.346531 c -0.859856,0.741255 -2.001389,1.526985 -3.053971,2.105164 H 25.45217 v 2.372016 h -6.122767 v 1.097057 h 6.122767 v 4.432705 c 0,0.266852 -0.08895,0.340978 -0.415103,0.355803 -0.311327,0.01482 -1.408385,0.01482 -2.594393,-0.02965 0.192727,0.311327 0.385453,0.81538 0.474404,1.126707 1.408384,0.01482 2.372016,-0.01483 2.920544,-0.192726 0.548529,-0.177901 0.741255,-0.518879 0.741255,-1.260134 V 34.20526 h 6.107941 z"
       style="fill:#ffffff;fill-opacity:1;stroke:#ffffff;stroke-width:0.529009;stroke-linecap:round;stroke-linejoin:round;stroke-miterlimit:4;stroke-dasharray:none;stroke-opacity:1"
       id="path1534" />
    <path
       d="m 41.344648,34.17561 v -3.928651 h 4.254804 v 3.928651 z m -5.381511,0 v -3.928651 h 4.239978 v 3.928651 z m 5.381511,-5.010884 v -2.638867 h -1.141533 v 2.638867 h -5.32221 v 7.012273 h 1.082232 v -0.919156 h 4.239978 v 4.803332 h 1.141533 v -4.803332 h 4.254804 v 0.84503 h 1.126707 v -6.938147 z"
       style="fill:#ffffff;fill-opacity:1;stroke:#ffffff;stroke-width:0.529009;stroke-linecap:round;stroke-linejoin:round;stroke-miterlimit:4;stroke-dasharray:none;stroke-opacity:1"
       id="path1536" />
    <path
       d="m 49.542898,33.41953 c 0.385453,-1.082232 0.667129,-2.757468 0.741255,-3.973127 l -0.830206,-0.1186 c -0.103775,1.200833 -0.370627,2.816769 -0.770905,3.795225 z m 1.274959,6.641645 h 1.097057 V 26.525859 H 50.817857 Z M 52.01869,29.253677 c 0.415102,0.815381 0.859855,1.882788 1.022931,2.520267 l 0.830206,-0.400278 C 53.693926,30.751012 53.234348,29.69843 52.789595,28.897875 Z m 6.508218,9.250862 v -3.706275 h 3.024321 v -1.022931 h -3.024321 v -3.068796 h 3.350473 v -1.052582 h -3.350473 v -3.068796 h -1.097057 v 3.068796 h -1.853137 c 0.207551,-0.72643 0.385452,-1.497335 0.533703,-2.268241 L 55.04301,27.207813 c -0.340977,2.016214 -0.933981,4.002777 -1.793837,5.292561 0.266852,0.118601 0.75608,0.355802 0.978456,0.504053 0.400278,-0.637479 0.741255,-1.408384 1.037757,-2.29789 h 2.164465 v 3.068796 H 54.28693 v 1.022931 h 3.142921 v 3.706275 h -4.239979 v 1.052583 h 9.043311 v -1.052583 z"
       style="fill:#ffffff;fill-opacity:1;stroke:#ffffff;stroke-width:0.529009;stroke-linecap:round;stroke-linejoin:round;stroke-miterlimit:4;stroke-dasharray:none;stroke-opacity:1"
       id="path1538" />
    <path
       d="m 77.162032,33.108203 h -6.107941 v -1.45286 c 1.645586,-0.889506 3.587674,-2.26824 4.847808,-3.543199 l -0.800555,-0.607829 -0.266852,0.0593 h -9.502889 v 1.067407 h 8.346531 c -0.859856,0.741255 -2.001389,1.526985 -3.053971,2.105164 h -0.696779 v 2.372016 h -6.122767 v 1.097057 h 6.122767 v 4.432705 c 0,0.266852 -0.08895,0.340978 -0.415103,0.355803 -0.311327,0.01482 -1.408385,0.01482 -2.594393,-0.02965 0.192727,0.311327 0.385453,0.81538 0.474404,1.126707 1.408384,0.01482 2.372016,-0.01483 2.920544,-0.192726 0.548529,-0.177901 0.741255,-0.518879 0.741255,-1.260134 V 34.20526 h 6.107941 z"
       style="fill:#ffffff;fill-opacity:1;stroke:#ffffff;stroke-width:0.529009;stroke-linecap:round;stroke-linejoin:round;stroke-miterlimit:4;stroke-dasharray:none;stroke-opacity:1"
       id="path1540" />
    <path
       d="m 82.543517,26.76306 c -0.978457,2.327541 -2.609218,4.566131 -4.299279,5.974516 0.207551,0.266851 0.548529,0.84503 0.667129,1.111882 0.652305,-0.593004 1.304609,-1.304609 1.927263,-2.090339 v 8.272406 h 1.111883 v -9.829042 c 0.637479,-0.978456 1.200833,-2.031038 1.645586,-3.08362 z m 4.625431,12.052807 c -0.81538,0 -0.978456,-0.177902 -0.978456,-1.008107 v -4.299279 c 1.838312,-0.978457 3.824875,-2.105164 5.218435,-3.231872 l -0.785731,-0.948806 c -1.097057,0.993281 -2.787118,2.149639 -4.432704,3.068795 v -5.514937 h -1.111883 v 10.911274 c 0,1.615936 0.474403,2.060689 2.016214,2.060689 h 3.039145 c 1.526985,0 1.853138,-0.845031 2.031039,-3.246697 -0.326152,-0.07413 -0.770905,-0.281677 -1.052582,-0.474404 -0.103776,2.14964 -0.237202,2.683344 -1.052582,2.683344 z"
       style="fill:#ffffff;fill-opacity:1;stroke:#ffffff;stroke-width:0.529009;stroke-linecap:round;stroke-linejoin:round;stroke-miterlimit:4;stroke-dasharray:none;stroke-opacity:1"
       id="path1542" />
    <path
       d="m 42.723431,50.409095 h -3.068796 v 0.963631 h 7.35325 v -0.963631 h -3.187397 v -2.342366 h 3.63215 v -0.978457 h -3.63215 v -2.031038 h -1.097057 v 2.031038 h -3.528374 v 0.978457 h 3.528374 z M 38.453802,45.057234 H 37.43087 v 6.923321 h 1.022932 z m -1.48251,2.342365 c -0.370627,-0.474403 -1.171183,-1.097057 -1.823487,-1.51216 l -0.66713,0.622654 c 0.652305,0.444753 1.438035,1.111883 1.793837,1.586286 z m 0.0593,1.571461 c -1.126707,0.518878 -2.23859,1.008107 -3.02432,1.319434 l 0.385453,0.904331 c 0.859855,-0.385453 1.882787,-0.859856 2.861244,-1.319434 z m 8.791285,5.085009 c -0.652305,0.474403 -1.719712,1.111883 -2.594393,1.541811 -0.578179,-0.518879 -1.052582,-1.126708 -1.423209,-1.793837 h 5.633538 v -0.874681 h -6.093116 v -1.186008 h -1.097058 v 1.186008 h -6.01899 v 0.874681 h 5.070184 c -1.378735,0.919156 -3.439423,1.660411 -5.277736,2.001388 0.207552,0.207551 0.489228,0.563354 0.622654,0.815381 0.933982,-0.207552 1.927263,-0.518879 2.861245,-0.919157 v 1.615936 c -0.652305,0.08895 -1.260134,0.163076 -1.764187,0.222377 l 0.192726,0.948806 c 1.615936,-0.207551 3.884176,-0.533703 6.048641,-0.845031 l -0.04448,-0.919156 c -1.141533,0.163076 -2.312716,0.311327 -3.394948,0.459578 v -1.956913 c 0.830205,-0.415103 1.57146,-0.904331 2.164464,-1.423209 h 0.02965 c 1.200834,2.475791 3.335648,4.121377 6.271018,4.847807 0.133426,-0.266852 0.415103,-0.681954 0.652304,-0.904331 -1.45286,-0.296502 -2.727818,-0.845031 -3.765575,-1.601111 0.874681,-0.400277 1.927263,-0.963631 2.727818,-1.51216 z"
       style="stroke-width:0.529009"
       id="path1544" />
    <path
       d="m 54.405583,46.480443 h 2.416491 v 1.319434 h -2.416491 z m -1.022932,1.319434 H 51.02546 v -1.319434 h 2.357191 z m 4.462355,-1.319434 h 2.490617 v 1.319434 h -2.490617 z m 1.897613,6.152417 h -6.004166 v -0.800556 h 6.004166 z m 0,1.467685 h -6.004166 v -0.815381 h 6.004166 z m 0,1.497335 h -6.004166 v -0.830206 h 6.004166 z m -7.027097,-4.44753 v 5.114659 h 8.079679 V 51.15035 h -4.803332 c 0.04447,-0.266852 0.103775,-0.548529 0.148251,-0.859856 h 5.885564 v -0.874681 h -5.737313 c 0.04448,-0.266852 0.07413,-0.548529 0.1186,-0.800555 h 5.010884 v -2.93537 H 49.987703 v 2.93537 h 5.307386 c -0.02965,0.252026 -0.0593,0.533703 -0.08895,0.800555 h -5.900389 v 0.874681 h 5.766963 c -0.04448,0.296502 -0.103775,0.593004 -0.148251,0.859856 z m 9.68079,5.944865 H 51.218186 v -5.722489 h -1.097057 v 7.234649 h 1.097057 v -0.622654 h 11.178126 z"
       style="stroke-width:0.529009"
       id="path1546" />
  </g>
</svg>
