<?xml version="1.0" encoding="UTF-8" standalone="no"?>
<svg
   xmlns:dc="http://purl.org/dc/elements/1.1/"
   xmlns:cc="http://creativecommons.org/ns#"
   xmlns:rdf="http://www.w3.org/1999/02/22-rdf-syntax-ns#"
   xmlns:svg="http://www.w3.org/2000/svg"
   xmlns="http://www.w3.org/2000/svg"
   xmlns:sodipodi="http://sodipodi.sourceforge.net/DTD/sodipodi-0.dtd"
   xmlns:inkscape="http://www.inkscape.org/namespaces/inkscape"
   width="300"
   height="300"
   viewBox="0 0 79.374999 79.374999"
   version="1.1"
   id="svg8"
   sodipodi:docname="粒子中性子化装置.svg"
   inkscape:version="1.0.2-2 (e86c870879, 2021-01-15)">
  <sodipodi:namedview
     pagecolor="#ffffff"
     bordercolor="#666666"
     borderopacity="1"
     objecttolerance="10"
     gridtolerance="10"
     guidetolerance="10"
     inkscape:pageopacity="0"
     inkscape:pageshadow="2"
     inkscape:window-width="1920"
     inkscape:window-height="1001"
     id="namedview843"
     showgrid="false"
     units="px"
     inkscape:zoom="2.854293"
     inkscape:cx="222.56417"
     inkscape:cy="206.86513"
     inkscape:window-x="-9"
     inkscape:window-y="-9"
     inkscape:window-maximized="1"
     inkscape:current-layer="svg8"
     inkscape:document-rotation="0" />
  <defs
     id="defs2" />
  <metadata
     id="metadata5">
    <rdf:RDF>
      <cc:Work
         rdf:about="">
        <dc:format>image/svg+xml</dc:format>
        <dc:type
           rdf:resource="http://purl.org/dc/dcmitype/StillImage" />
        <dc:title />
      </cc:Work>
    </rdf:RDF>
  </metadata>
  <path
     id="rect837"
     style="fill:#808080;fill-opacity:1;stroke:#4886b4;stroke-width:0.186326;stroke-linecap:round;stroke-linejoin:round;paint-order:stroke fill markers"
     d="M 5.9617072,0.09316314 H 73.413294 c 3.251173,0 5.868544,2.61737066 5.868544,5.86854406 V 73.413294 c 0,3.251173 -2.617371,5.868544 -5.868544,5.868544 H 5.9617072 c -3.2511734,0 -5.86854406,-2.617371 -5.86854406,-5.868544 V 5.9617072 c 0,-3.2511734 2.61737066,-5.86854406 5.86854406,-5.86854406 z" />
  <g
     aria-label="p+n+e→3n"
     transform="scale(0.94065413,1.06309)"
     id="text835"
     style="font-style:italic;font-variant:normal;font-weight:bold;font-stretch:normal;font-size:14.8905px;line-height:1.25;font-family:'Source Han Serif';-inkscape-font-specification:'Source Han Serif Bold Italic';word-spacing:0px;fill:#fff648;fill-opacity:1;stroke-width:0.232661">
    <path
       d="m 6.6075354,12.662603 c 0.7296345,-0.565839 1.250802,-0.684963 1.727298,-0.684963 1.2359115,0 1.8017506,0.938101 1.340145,3.2908 -0.4913865,2.427152 -1.5337215,3.27591 -2.7547425,3.27591 -0.565839,0 -1.012554,-0.134014 -1.3848165,-0.550948 z m 0.119124,-1.444379 -0.178686,-0.148905 -3.007881,0.908321 -0.074452,0.372262 1.1763495,0.119124 c -0.1042335,0.714744 -0.208467,1.265693 -0.4020435,2.233575 l -0.952992,4.794741 c -0.178686,0.908321 -0.416934,1.980437 -0.6402915,3.052553 l -1.161459,0.134014 -0.089343,0.446715 h 4.3926975 l 0.089343,-0.446715 -1.250802,-0.148905 c 0.1935765,-1.072116 0.4020435,-2.144232 0.5807295,-3.037662 l 0.208467,-1.027444 c 0.4913865,0.759415 1.2061305,1.027444 1.9804365,1.027444 1.965546,0 3.8566391,-1.637955 4.3778071,-4.273573 0.536058,-2.635619 -0.58073,-4.16934 -2.3824801,-4.16934 -0.923211,0 -1.876203,0.342481 -2.7547425,1.146568 z"
       style="font-style:italic;font-variant:normal;font-weight:bold;font-stretch:normal;font-size:14.8905px;font-family:'Source Han Serif';-inkscape-font-specification:'Source Han Serif Bold Italic';fill:#fff648;fill-opacity:1;stroke-width:0.232661"
       id="path1515" />
    <path
       d="M 21.155543,13.422018 H 17.641385 L 18.37102,9.7738457 h -0.848759 l -0.729634,3.6481723 h -3.529049 l -0.148905,0.804087 h 3.529049 l -0.759416,3.737516 h 0.848759 l 0.759415,-3.737516 h 3.514158 z"
       style="font-style:italic;font-variant:normal;font-weight:bold;font-stretch:normal;font-size:14.8905px;font-family:'Source Han Serif';-inkscape-font-specification:'Source Han Serif Bold Italic';fill:#fff648;fill-opacity:1;stroke-width:0.232661"
       id="path1517" />
    <path
       d="m 29.389979,18.678365 c 0.148905,-0.848759 0.387153,-2.06978 0.550948,-2.918538 l 0.357372,-1.816641 c 0.402044,-1.995327 -0.29781,-2.888757 -1.697517,-2.888757 -0.967882,0 -1.965546,0.416934 -3.127005,1.50394 l 0.163796,-1.355035 -0.178686,-0.134015 -3.037662,0.908321 -0.07445,0.372262 1.146569,0.119124 c -0.08934,0.714744 -0.193577,1.250802 -0.387153,2.218685 l -0.208467,1.072116 c -0.163796,0.818977 -0.431825,2.054889 -0.610511,2.903647 l -1.116787,0.134015 -0.08934,0.461605 h 4.079997 l 0.08934,-0.461605 -0.938102,-0.119124 c 0.148905,-0.848759 0.387153,-2.099561 0.550949,-2.918538 l 0.536058,-2.68029 c 0.863649,-0.670073 1.593283,-0.967883 2.144232,-0.967883 0.804087,0 1.087006,0.446715 0.833868,1.742189 l -0.387153,1.905984 c -0.163796,0.848758 -0.431825,2.069779 -0.625401,2.903647 l -1.072116,0.134015 -0.08934,0.461605 h 4.079997 l 0.08934,-0.461605 z"
       style="font-style:italic;font-variant:normal;font-weight:bold;font-stretch:normal;font-size:14.8905px;font-family:'Source Han Serif';-inkscape-font-specification:'Source Han Serif Bold Italic';fill:#fff648;fill-opacity:1;stroke-width:0.232661"
       id="path1519" />
    <path
       d="M 40.274923,13.422018 H 36.760765 L 37.4904,9.7738457 h -0.848759 l -0.729634,3.6481723 h -3.529049 l -0.148905,0.804087 h 3.529049 l -0.759416,3.737516 h 0.848759 l 0.759415,-3.737516 h 3.514158 z"
       style="font-style:italic;font-variant:normal;font-weight:bold;font-stretch:normal;font-size:14.8905px;font-family:'Source Han Serif';-inkscape-font-specification:'Source Han Serif Bold Italic';fill:#fff648;fill-opacity:1;stroke-width:0.232661"
       id="path1521" />
    <path
       d="m 43.238121,14.687711 c 0.536058,-2.174013 1.533721,-3.082334 2.471823,-3.082334 0.90832,0 1.384816,0.774306 1.146568,1.980437 -0.148905,0.759415 -0.387153,1.101897 -1.072116,1.101897 z M 48.286,15.238659 c 0.119124,-0.253138 0.208467,-0.536058 0.28292,-0.923211 0.387153,-1.876203 -0.58073,-3.261019 -2.620728,-3.261019 -2.08467,0 -4.348026,1.533721 -4.884084,4.214011 -0.550949,2.710071 0.848758,4.228902 3.186567,4.228902 1.474159,0 2.739852,-0.699853 3.58861,-1.920874 l -0.268029,-0.208467 c -0.655182,0.699853 -1.384816,1.146568 -2.456932,1.146568 -1.444379,0 -2.38248,-0.997663 -1.980437,-3.27591 z"
       style="font-style:italic;font-variant:normal;font-weight:bold;font-stretch:normal;font-size:14.8905px;font-family:'Source Han Serif';-inkscape-font-specification:'Source Han Serif Bold Italic';fill:#fff648;fill-opacity:1;stroke-width:0.232661"
       id="path1523" />
    <path
       d="m 49.834613,13.958076 h 12.091086 c -1.116787,0.729635 -2.308027,1.727298 -3.2908,2.769633 l 0.461605,0.446715 c 1.295474,-1.384816 3.067443,-2.710071 4.601165,-3.57372 -1.17635,-0.863649 -2.442042,-2.188903 -3.171677,-3.57372 l -0.640291,0.446715 c 0.536058,0.997664 1.369926,2.039999 2.188903,2.769633 H 49.983518 Z"
       style="font-style:italic;font-variant:normal;font-weight:bold;font-stretch:normal;font-size:14.8905px;font-family:'Source Han Serif';-inkscape-font-specification:'Source Han Serif Bold Italic';fill:#fff648;fill-opacity:1;stroke-width:0.232661"
       id="path1525" />
    <path
       d="m 68.343477,9.0144302 c 0.223357,-0.044671 0.446715,-0.074452 0.655182,-0.074452 1.20613,0 1.742188,0.744525 1.459269,2.1144513 -0.312701,1.578393 -1.384817,2.367589 -2.769633,2.367589 h -0.550949 l -0.119124,0.59562 h 0.655182 c 1.593284,0 2.263356,0.863649 1.935765,2.456933 -0.3127,1.608174 -1.325254,2.471823 -2.918538,2.471823 -0.253138,0 -0.476496,-0.02978 -0.714744,-0.08934 v -1.280583 c 0.01489,-0.87854 -0.223357,-1.161459 -0.774306,-1.161459 -0.342481,0 -0.714744,0.178686 -0.967882,0.59562 -0.134015,1.637955 0.90832,2.486713 2.918538,2.486713 2.38248,0 4.139559,-1.265692 4.496931,-3.067443 0.282919,-1.414597 -0.327591,-2.442042 -2.36759,-2.769633 1.905984,-0.416934 2.873867,-1.399707 3.127005,-2.650509 0.29781,-1.5337213 -0.61051,-2.6058373 -2.784523,-2.6058373 -1.667736,0 -3.26102,0.714744 -3.737516,2.3526993 0.08934,0.3127 0.357372,0.491386 0.699854,0.491386 0.506277,0 0.923211,-0.268029 1.19124,-0.967882 z"
       style="font-style:italic;font-variant:normal;font-weight:bold;font-stretch:normal;font-size:14.8905px;font-family:'Source Han Serif';-inkscape-font-specification:'Source Han Serif Bold Italic';fill:#fff648;fill-opacity:1;stroke-width:0.232661"
       id="path1527" />
    <path
       d="m 80.628136,18.678365 c 0.148905,-0.848759 0.387153,-2.06978 0.550949,-2.918538 l 0.357372,-1.816641 c 0.402043,-1.995327 -0.29781,-2.888757 -1.697517,-2.888757 -0.967883,0 -1.965546,0.416934 -3.127005,1.50394 l 0.163795,-1.355035 -0.178686,-0.134015 -3.037662,0.908321 -0.07445,0.372262 1.146568,0.119124 c -0.08934,0.714744 -0.193576,1.250802 -0.387153,2.218685 l -0.208467,1.072116 c -0.163795,0.818977 -0.431824,2.054889 -0.61051,2.903647 l -1.116788,0.134015 -0.08934,0.461605 h 4.079997 l 0.08934,-0.461605 -0.938101,-0.119124 c 0.148905,-0.848759 0.387153,-2.099561 0.550948,-2.918538 l 0.536058,-2.68029 c 0.863649,-0.670073 1.593284,-0.967883 2.144232,-0.967883 0.804087,0 1.087007,0.446715 0.833868,1.742189 l -0.387153,1.905984 c -0.163795,0.848758 -0.431824,2.069779 -0.625401,2.903647 l -1.072116,0.134015 -0.08934,0.461605 h 4.079997 l 0.08934,-0.461605 z"
       style="font-style:italic;font-variant:normal;font-weight:bold;font-stretch:normal;font-size:14.8905px;font-family:'Source Han Serif';-inkscape-font-specification:'Source Han Serif Bold Italic';fill:#fff648;fill-opacity:1;stroke-width:0.232661"
       id="path1529" />
  </g>
  <g
     aria-label="原子中性子化
   装置"
     transform="scale(0.82423736,1.2132427)"
     id="text850"
     style="font-size:14.8149px;line-height:1.25;font-family:'Source Han Code JP';-inkscape-font-specification:'Source Han Code JP';word-spacing:0px;fill:#ffffff;fill-opacity:1;stroke:#ffffff;stroke-width:0.529167;stroke-miterlimit:4;stroke-dasharray:none;stroke-opacity:1">
    <path
       d="m 9.6871083,35.624565 c -0.6814854,1.111118 -1.777788,2.207421 -2.8740907,2.918536 0.2518533,0.148149 0.7111152,0.459262 0.903709,0.651855 1.0666728,-0.800004 2.2370499,-2.029641 3.0074244,-3.274093 z m -0.044445,-3.007424 h 6.1185534 v 1.362971 H 9.6426636 Z m 0,-2.177791 h 6.1185534 v 1.348156 H 9.6426636 Z m 7.2444864,4.414841 v -5.28892 h -4.074098 c 0.162964,-0.444447 0.325928,-0.962968 0.474077,-1.45186 h 4.800028 V 27.120813 H 6.1463471 v 4.237061 c 0,2.32594 -0.1185192,5.555588 -1.4222304,7.866712 0.2814831,0.103705 0.740745,0.385188 0.9481536,0.562966 1.3629708,-2.414828 1.5555645,-5.970404 1.5555645,-8.414863 v -3.259278 h 4.7703982 c -0.07408,0.444447 -0.207409,0.992598 -0.340743,1.45186 H 8.5611759 v 5.28892 h 3.5852061 v 3.762984 c 0,0.177779 -0.05926,0.251854 -0.281483,0.251854 -0.222224,0.01482 -0.992599,0.01482 -1.851863,-0.01481 0.133334,0.281483 0.296298,0.681485 0.340743,0.962968 1.140747,0 1.851862,0 2.296309,-0.162964 0.444447,-0.148149 0.562967,-0.444447 0.562967,-1.022228 v -3.777799 z m -2.400014,1.244451 c 1.111118,0.888894 2.400014,2.162976 2.96298,3.037055 l 0.888894,-0.607411 c -0.607411,-0.874079 -1.911122,-2.103716 -3.007425,-2.96298 z"
       style="fill:#ffffff;fill-opacity:1;stroke:#ffffff;stroke-width:0.529167;stroke-miterlimit:4;stroke-dasharray:none;stroke-opacity:1"
       id="path854" />
    <path
       d="m 33.079807,32.868994 h -6.103739 v -1.45186 c 1.644454,-0.888894 3.585206,-2.26668 4.844473,-3.540761 l -0.800005,-0.607411 -0.266668,0.05926 h -9.496351 v 1.066673 h 8.340789 c -0.859264,0.740745 -2.000012,1.525935 -3.05187,2.103716 h -0.6963 v 2.370384 h -6.118554 v 1.096303 h 6.118554 v 4.429655 c 0,0.266668 -0.08889,0.340743 -0.414817,0.355557 -0.311113,0.01481 -1.407416,0.01481 -2.592608,-0.02963 0.192594,0.311113 0.385188,0.814819 0.474077,1.125932 1.407416,0.01481 2.370384,-0.01481 2.918535,-0.192594 0.548152,-0.177778 0.740745,-0.518521 0.740745,-1.259266 v -4.429655 h 6.103739 z"
       style="fill:#ffffff;fill-opacity:1;stroke:#ffffff;stroke-width:0.529167;stroke-miterlimit:4;stroke-dasharray:none;stroke-opacity:1"
       id="path856" />
    <path
       d="m 41.731681,33.935667 v -3.925949 h 4.251876 v 3.925949 z m -5.377809,0 v -3.925949 h 4.237061 v 3.925949 z m 5.377809,-5.007437 v -2.637052 h -1.140748 v 2.637052 h -5.318549 v 7.007448 h 1.081488 v -0.918523 h 4.237061 v 4.800027 h 1.140748 v -4.800027 h 4.251876 v 0.844449 h 1.125932 V 28.92823 Z"
       style="fill:#ffffff;fill-opacity:1;stroke:#ffffff;stroke-width:0.529167;stroke-miterlimit:4;stroke-dasharray:none;stroke-opacity:1"
       id="path858" />
    <path
       d="m 49.924291,33.180107 c 0.385187,-1.081488 0.666671,-2.755572 0.740745,-3.970393 l -0.829634,-0.11852 c -0.103705,1.200007 -0.370373,2.814831 -0.770375,3.792615 z m 1.274081,6.637075 h 1.096303 V 26.291178 H 51.198372 Z M 52.398379,29.01712 c 0.414818,0.814819 0.859265,1.881492 1.022228,2.518533 l 0.829635,-0.400002 c -0.177779,-0.622226 -0.637041,-1.674084 -1.081488,-2.474089 z m 6.503742,9.244498 V 34.557893 H 61.92436 V 33.535665 H 58.902121 V 30.46898 h 3.348167 v -1.051858 h -3.348167 v -3.066684 h -1.096303 v 3.066684 h -1.851863 c 0.207409,-0.72593 0.385188,-1.496305 0.533337,-2.26668 l -1.066673,-0.177778 c -0.340743,2.014826 -0.933339,4.000023 -1.792603,5.288919 0.266668,0.118519 0.75556,0.355558 0.977784,0.503707 0.400002,-0.637041 0.740745,-1.407416 1.037043,-2.29631 h 2.162975 v 3.066685 h -3.140759 v 1.022228 h 3.140759 v 3.703725 h -4.237062 v 1.051858 h 9.03709 v -1.051858 z"
       style="fill:#ffffff;fill-opacity:1;stroke:#ffffff;stroke-width:0.529167;stroke-miterlimit:4;stroke-dasharray:none;stroke-opacity:1"
       id="path860" />
    <path
       d="m 77.524423,32.868994 h -6.103739 v -1.45186 c 1.644454,-0.888894 3.585206,-2.26668 4.844472,-3.540761 l -0.800004,-0.607411 -0.266669,0.05926 h -9.496351 v 1.066673 h 8.340789 c -0.859264,0.740745 -2.000011,1.525935 -3.051869,2.103716 h -0.696301 v 2.370384 h -6.118553 v 1.096303 h 6.118553 v 4.429655 c 0,0.266668 -0.08889,0.340743 -0.414817,0.355557 -0.311113,0.01481 -1.407415,0.01481 -2.592607,-0.02963 0.192593,0.311113 0.385187,0.814819 0.474076,1.125932 1.407416,0.01481 2.370384,-0.01481 2.918536,-0.192594 0.548151,-0.177778 0.740745,-0.518521 0.740745,-1.259266 v -4.429655 h 6.103739 z"
       style="fill:#ffffff;fill-opacity:1;stroke:#ffffff;stroke-width:0.529167;stroke-miterlimit:4;stroke-dasharray:none;stroke-opacity:1"
       id="path862" />
    <path
       d="m 82.9022,26.528217 c -0.977783,2.325939 -2.607422,4.562989 -4.296321,5.970404 0.207409,0.266669 0.548151,0.84445 0.666671,1.111118 0.651855,-0.592596 1.303711,-1.303711 1.925937,-2.088901 v 8.266714 h 1.111117 v -9.822278 c 0.637041,-0.977784 1.200007,-2.029642 1.644454,-3.0815 z m 4.622249,12.044514 c -0.814819,0 -0.977783,-0.177779 -0.977783,-1.007414 v -4.296321 c 1.837047,-0.977783 3.822244,-2.103716 5.214845,-3.229648 l -0.78519,-0.948154 c -1.096303,0.992599 -2.785201,2.148161 -4.429655,3.066685 v -5.511143 h -1.111118 v 10.903767 c 0,1.614824 0.474077,2.059271 2.014827,2.059271 h 3.037054 c 1.525935,0 1.851863,-0.84445 2.029642,-3.244464 -0.325928,-0.07407 -0.770375,-0.281483 -1.051858,-0.474076 -0.103705,2.14816 -0.237039,2.681497 -1.051858,2.681497 z"
       style="fill:#ffffff;fill-opacity:1;stroke:#ffffff;stroke-width:0.529167;stroke-miterlimit:4;stroke-dasharray:none;stroke-opacity:1"
       id="path864" />
    <path
       d="m 43.109515,50.157983 h -3.066684 v 0.962968 h 7.348191 v -0.962968 h -3.185204 v -2.340755 h 3.629651 v -0.977783 h -3.629651 v -2.029641 h -1.096303 v 2.029641 h -3.525946 v 0.977783 h 3.525946 z m -4.266691,-5.348179 h -1.022228 v 6.918558 h 1.022228 z m -1.48149,2.340754 c -0.370372,-0.474077 -1.170377,-1.096303 -1.822233,-1.51112 l -0.66667,0.622226 c 0.651855,0.444447 1.437045,1.111117 1.792603,1.585194 z m 0.05926,1.570379 c -1.125933,0.518522 -2.23705,1.007414 -3.02224,1.318527 l 0.385187,0.903708 c 0.859265,-0.385187 1.881493,-0.859264 2.859276,-1.318526 z m 8.785236,5.081511 c -0.651856,0.474077 -1.718529,1.111118 -2.592608,1.54075 -0.577781,-0.518522 -1.051858,-1.125933 -1.42223,-1.792603 h 5.629662 V 52.676516 H 41.73173 v -1.185192 h -1.096303 v 1.185192 h -6.014849 v 0.874079 h 5.066695 c -1.377785,0.918524 -3.437056,1.659269 -5.274104,2.000012 0.207409,0.207408 0.488892,0.562966 0.622226,0.814819 0.933338,-0.207409 1.925937,-0.518521 2.859276,-0.918524 v 1.614824 c -0.651856,0.08889 -1.259267,0.162964 -1.762974,0.222224 l 0.192594,0.948153 c 1.614824,-0.207408 3.881504,-0.533336 6.044479,-0.844449 l -0.04444,-0.918524 c -1.140748,0.162964 -2.311125,0.311113 -3.392612,0.459262 v -1.955567 c 0.829634,-0.414817 1.570379,-0.903709 2.162975,-1.42223 h 0.02963 c 1.200007,2.474088 3.333352,4.118542 6.266703,4.844472 0.133334,-0.266668 0.414817,-0.681485 0.651855,-0.903709 -1.45186,-0.296298 -2.725941,-0.844449 -3.762984,-1.600009 0.874079,-0.400002 1.925937,-0.962968 2.725941,-1.51112 z"
       style="fill:#ffffff;fill-opacity:1;stroke:#ffffff;stroke-width:0.529167;stroke-miterlimit:4;stroke-dasharray:none;stroke-opacity:1"
       id="path866" />
    <path
       d="m 54.783629,46.232034 h 2.414829 v 1.318526 h -2.414829 z m -1.022228,1.318526 h -2.355569 v -1.318526 h 2.355569 z m 4.459285,-1.318526 h 2.488903 v 1.318526 h -2.488903 z m 1.896307,6.148184 h -6.000034 v -0.800005 h 6.000034 z m 0,1.466675 h -6.000034 v -0.81482 h 6.000034 z m 0,1.496305 h -6.000034 v -0.829635 h 6.000034 z m -7.022262,-4.44447 v 5.11114 h 8.07412 v -5.11114 h -4.800027 c 0.04444,-0.266668 0.103704,-0.548152 0.148149,-0.859264 h 5.881515 v -0.87408 h -5.733366 c 0.04444,-0.266668 0.07407,-0.548151 0.118519,-0.800004 h 5.007436 V 45.43203 H 50.368789 v 2.93335 h 5.303734 c -0.02963,0.251853 -0.05926,0.533336 -0.08889,0.800004 h -5.89633 v 0.87408 H 55.4503 c -0.04444,0.296298 -0.103704,0.592596 -0.148149,0.859264 z m 9.67413,5.940775 H 51.598426 v -5.718552 h -1.096303 v 7.229672 h 1.096303 v -0.622226 h 11.170435 z"
       style="fill:#ffffff;fill-opacity:1;stroke:#ffffff;stroke-width:0.529167;stroke-miterlimit:4;stroke-dasharray:none;stroke-opacity:1"
       id="path868" />
  </g>
</svg>
