<?xml version="1.0" encoding="UTF-8" standalone="no"?>
<svg
   xmlns:dc="http://purl.org/dc/elements/1.1/"
   xmlns:cc="http://creativecommons.org/ns#"
   xmlns:rdf="http://www.w3.org/1999/02/22-rdf-syntax-ns#"
   xmlns:svg="http://www.w3.org/2000/svg"
   xmlns="http://www.w3.org/2000/svg"
   xmlns:sodipodi="http://sodipodi.sourceforge.net/DTD/sodipodi-0.dtd"
   xmlns:inkscape="http://www.inkscape.org/namespaces/inkscape"
   width="300"
   height="300"
   viewBox="0 0 79.374999 79.374999"
   version="1.1"
   id="svg8"
   sodipodi:docname="粒子合成装置.svg"
   inkscape:version="1.0.2-2 (e86c870879, 2021-01-15)">
  <sodipodi:namedview
     pagecolor="#ffffff"
     bordercolor="#666666"
     borderopacity="1"
     objecttolerance="10"
     gridtolerance="10"
     guidetolerance="10"
     inkscape:pageopacity="0"
     inkscape:pageshadow="2"
     inkscape:window-width="1920"
     inkscape:window-height="1001"
     id="namedview843"
     showgrid="false"
     units="px"
     inkscape:zoom="1.4271465"
     inkscape:cx="343.5447"
     inkscape:cy="247.00785"
     inkscape:window-x="-9"
     inkscape:window-y="-9"
     inkscape:window-maximized="1"
     inkscape:current-layer="svg8"
     inkscape:document-rotation="0" />
  <defs
     id="defs2" />
  <metadata
     id="metadata5">
    <rdf:RDF>
      <cc:Work
         rdf:about="">
        <dc:format>image/svg+xml</dc:format>
        <dc:type
           rdf:resource="http://purl.org/dc/dcmitype/StillImage" />
        <dc:title />
      </cc:Work>
    </rdf:RDF>
  </metadata>
  <path
     id="rect837"
     style="fill:#808080;fill-opacity:1;stroke:#4886b4;stroke-width:0.186326;stroke-linecap:round;stroke-linejoin:round;paint-order:stroke fill markers"
     d="M 5.9617072,0.09316314 H 73.413294 c 3.251173,0 5.868544,2.61737066 5.868544,5.86854406 V 73.413294 c 0,3.251173 -2.617371,5.868544 -5.868544,5.868544 H 5.9617072 c -3.2511734,0 -5.86854406,-2.617371 -5.86854406,-5.868544 V 5.9617072 c 0,-3.2511734 2.61737066,-5.86854406 5.86854406,-5.86854406 z" />
  <g
     aria-label="p+n+e→a"
     id="text835"
     style="font-style:italic;font-variant:normal;font-weight:bold;font-stretch:normal;font-size:15.8299px;line-height:1.25;font-family:'Source Han Serif';-inkscape-font-specification:'Source Han Serif Bold Italic';word-spacing:0px;fill:#fff648;fill-opacity:1;stroke-width:0.24734">
    <path
       d="m 6.8534873,13.461504 c 0.775665,-0.601536 1.3297115,-0.728175 1.8362683,-0.728175 1.3138814,0 1.9154184,0.997283 1.4246914,3.498408 -0.5223871,2.580273 -1.6304801,3.482578 -2.9285318,3.482578 -0.6015362,0 -1.0764332,-0.14247 -1.4721807,-0.585707 z m 0.1266392,-1.5355 -0.1899588,-0.158299 -3.1976398,0.965624 -0.079149,0.395747 1.2505621,0.126639 C 4.6531312,14.015551 4.5423219,14.601257 4.3365332,15.6302 l -1.0131136,5.097228 c -0.1899588,0.965624 -0.4432372,2.105377 -0.6806857,3.24513 l -1.2347322,0.142469 -0.094979,0.474897 h 4.6698205 l 0.094979,-0.474897 -1.3297116,-0.158299 c 0.2057887,-1.139753 0.4274073,-2.279506 0.6173661,-3.2293 l 0.2216186,-1.092263 c 0.5223867,0.807325 1.2822219,1.092263 2.1053766,1.092263 2.0895468,0 4.0999441,-1.741289 4.6539901,-4.543181 0.569877,-2.801892 -0.617366,-4.432372 -2.5327835,-4.432372 -0.9814538,0 -1.9945674,0.364088 -2.9285314,1.218902 z"
       style="font-style:italic;font-variant:normal;font-weight:bold;font-stretch:normal;font-size:15.8299px;font-family:'Source Han Serif';-inkscape-font-specification:'Source Han Serif Bold Italic';fill:#fff648;fill-opacity:1;stroke-width:0.24734"
       id="path2120" />
    <path
       d="m 22.319288,14.268829 h -3.735856 l 0.775665,-3.878325 h -0.902304 l -0.775666,3.878325 h -3.751686 l -0.158299,0.854815 h 3.751686 l -0.807324,3.973304 h 0.902304 l 0.807325,-3.973304 h 3.735856 z"
       style="font-style:italic;font-variant:normal;font-weight:bold;font-stretch:normal;font-size:15.8299px;font-family:'Source Han Serif';-inkscape-font-specification:'Source Han Serif Bold Italic';fill:#fff648;fill-opacity:1;stroke-width:0.24734"
       id="path2122" />
    <path
       d="m 31.073212,19.856784 c 0.158299,-0.902305 0.411577,-2.200356 0.585706,-3.102661 l 0.379918,-1.931248 c 0.427407,-2.121206 -0.316598,-3.071 -1.804609,-3.071 -1.028943,0 -2.089547,0.443237 -3.324279,1.59882 l 0.174129,-1.440521 -0.189959,-0.142469 -3.229299,0.965624 -0.07915,0.395747 1.218902,0.126639 c -0.09498,0.759836 -0.205788,1.329712 -0.411577,2.358655 l -0.221619,1.139753 c -0.174129,0.870645 -0.459067,2.184526 -0.649025,3.086831 l -1.187243,0.142469 -0.09498,0.490727 h 4.337392 l 0.09498,-0.490727 -0.997284,-0.126639 c 0.158299,-0.902305 0.411577,-2.232016 0.585706,-3.102661 l 0.569877,-2.849382 c 0.918134,-0.712345 1.693799,-1.028943 2.279505,-1.028943 0.854815,0 1.155583,0.474897 0.886475,1.852098 l -0.411578,2.026227 c -0.174129,0.902305 -0.459067,2.200356 -0.664856,3.086831 l -1.139752,0.142469 -0.09498,0.490727 h 4.337393 l 0.09498,-0.490727 z"
       style="font-style:italic;font-variant:normal;font-weight:bold;font-stretch:normal;font-size:15.8299px;font-family:'Source Han Serif';-inkscape-font-specification:'Source Han Serif Bold Italic';fill:#fff648;fill-opacity:1;stroke-width:0.24734"
       id="path2124" />
    <path
       d="m 42.644855,14.268829 h -3.735856 l 0.775665,-3.878325 H 38.78236 l -0.775665,3.878325 h -3.751687 l -0.158299,0.854815 h 3.751687 l -0.807325,3.973304 h 0.902304 L 38.7507,15.123644 h 3.735856 z"
       style="font-style:italic;font-variant:normal;font-weight:bold;font-stretch:normal;font-size:15.8299px;font-family:'Source Han Serif';-inkscape-font-specification:'Source Han Serif Bold Italic';fill:#fff648;fill-opacity:1;stroke-width:0.24734"
       id="path2126" />
    <path
       d="m 45.794996,15.61437 c 0.569877,-2.311165 1.63048,-3.276789 2.627764,-3.276789 0.965624,0 1.47218,0.823155 1.218902,2.105377 -0.158299,0.807325 -0.411577,1.171412 -1.139753,1.171412 z m 5.366336,0.585707 c 0.12664,-0.269109 0.221619,-0.569877 0.300768,-0.981454 0.411578,-1.994567 -0.617366,-3.466748 -2.786062,-3.466748 -2.216186,0 -4.622331,1.63048 -5.192207,4.479862 -0.585706,2.881041 0.902304,4.495691 3.387599,4.495691 1.56716,0 2.912701,-0.744005 3.815005,-2.042057 l -0.284938,-0.221619 c -0.696515,0.744006 -1.472181,1.218903 -2.611933,1.218903 -1.535501,0 -2.532784,-1.060604 -2.105377,-3.482578 z"
       style="font-style:italic;font-variant:normal;font-weight:bold;font-stretch:normal;font-size:15.8299px;font-family:'Source Han Serif';-inkscape-font-specification:'Source Han Serif Bold Italic';fill:#fff648;fill-opacity:1;stroke-width:0.24734"
       id="path2128" />
    <path
       d="m 52.807639,14.838705 h 12.853879 c -1.187243,0.775665 -2.453635,1.836269 -3.498408,2.944362 l 0.490727,0.474897 c 1.377201,-1.472181 3.260959,-2.881042 4.891439,-3.799176 -1.250562,-0.918134 -2.596104,-2.326995 -3.371769,-3.799176 l -0.680685,0.474897 c 0.569876,1.060603 1.45635,2.168696 2.326995,2.944361 H 52.965938 Z"
       style="font-style:italic;font-variant:normal;font-weight:bold;font-stretch:normal;font-size:15.8299px;font-family:'Source Han Serif';-inkscape-font-specification:'Source Han Serif Bold Italic';fill:#fff648;fill-opacity:1;stroke-width:0.24734"
       id="path2130" />
    <path
       d="m 72.784941,18.8595 c -0.838984,0.601536 -1.282222,0.838985 -1.804608,0.838985 -0.759835,0 -1.187243,-0.443238 -0.997284,-1.377202 0.205789,-0.981453 0.823155,-1.709629 2.168696,-2.200356 0.284939,-0.110809 0.759836,-0.237448 1.266392,-0.379917 z m 3.21347,0.522387 c -0.364088,0.379917 -0.585706,0.522386 -0.823155,0.522386 -0.348258,0 -0.522386,-0.237448 -0.379917,-0.949794 l 0.823154,-4.084114 c 0.443238,-2.216186 -0.253278,-3.11849 -2.326995,-3.11849 -2.200356,0 -3.688366,0.886474 -4.179093,2.311165 0,0.474897 0.284938,0.728176 0.807324,0.728176 0.538217,0 1.028944,-0.348258 1.266392,-1.218903 l 0.459068,-1.139752 c 0.284938,-0.06332 0.569876,-0.09498 0.838984,-0.09498 1.187243,0 1.519671,0.459067 1.187243,2.137037 l -0.158299,0.807325 c -0.649026,0.142469 -1.313882,0.316598 -1.820439,0.474897 -2.596103,0.759835 -3.482578,1.5355 -3.735856,2.849382 -0.269108,1.329711 0.538217,2.121206 1.867928,2.121206 1.171413,0 1.883758,-0.490727 2.944361,-1.408861 0.03166,0.854815 0.474897,1.393031 1.440521,1.393031 0.838985,0 1.456351,-0.300768 2.026228,-1.092263 z"
       style="font-style:italic;font-variant:normal;font-weight:bold;font-stretch:normal;font-size:15.8299px;font-family:'Source Han Serif';-inkscape-font-specification:'Source Han Serif Bold Italic';fill:#fff648;fill-opacity:1;stroke-width:0.24734"
       id="path2132" />
  </g>
  <g
     aria-label="粒子合成装置"
     transform="scale(0.81529559,1.226549)"
     id="text841"
     style="font-size:14.6004px;line-height:1.25;font-family:'Source Han Code JP';-inkscape-font-specification:'Source Han Code JP';word-spacing:0px;fill:#ffffff;fill-opacity:1;stroke:#ffffff;stroke-width:0.520992;stroke-linecap:round;stroke-linejoin:round;stroke-miterlimit:4;stroke-dasharray:none;stroke-opacity:1">
    <path
       d="m 10.791352,34.281546 v 1.036628 h 7.431603 V 34.281546 H 14.908664 V 31.50747 h -1.09503 v 2.774076 z m 2.847078,7.942618 c -0.0584,-1.664446 -0.438012,-4.131914 -0.978227,-6.073767 l -1.007428,0.189805 c 0.511014,1.927253 0.890625,4.438522 0.919825,6.059166 z M 9.8423255,32.295892 c -0.1752048,0.934425 -0.5548152,2.321463 -0.8614236,3.153686 l 0.7446204,0.233606 C 10.061332,34.894763 10.484743,33.595327 10.805952,32.544098 Z M 6.9660467,35.478779 C 6.8930447,34.631956 6.5426351,33.361721 6.1338239,32.383494 L 5.3162015,32.5879 c 0.3942108,0.978226 0.7154196,2.277662 0.7738212,3.124485 z m 3.7377023,4.891134 C 10.397141,40.004903 9.0393035,38.574064 8.5574903,38.121451 v -0.74462 H 10.674548 V 36.369403 H 8.5574903 v -4.993337 h -1.022028 v 4.993337 H 5.2285991 v 1.007428 h 2.117058 c -0.5256144,1.591443 -1.4454396,3.401893 -2.3214636,4.39472 0.1898052,0.277408 0.4526124,0.73002 0.5694156,1.051229 0.7008192,-0.861424 1.4016384,-2.248462 1.9418532,-3.6355 v 5.489751 h 1.022028 v -5.387548 c 0.5548152,0.671619 1.2118332,1.518442 1.4746407,1.971054 z m 5.007937,2.715674 c 0.511014,-1.854251 1.06583,-4.672128 1.43084,-6.876788 l -1.182633,-0.233607 c -0.248207,2.17546 -0.803022,5.241544 -1.284835,7.110395 h -4.511524 v 1.022028 h 8.293028 v -1.022028 z"
       style="fill:#ffffff;fill-opacity:1;stroke:#ffffff;stroke-width:0.520992;stroke-linecap:round;stroke-linejoin:round;stroke-miterlimit:4;stroke-dasharray:none;stroke-opacity:1"
       id="path2135" />
    <path
       d="m 32.983932,37.844044 h -6.015365 v -1.43084 c 1.620644,-0.876024 3.533297,-2.233861 4.774331,-3.489495 l -0.788422,-0.598617 -0.262807,0.0584 h -9.358856 v 1.051229 h 8.220025 c -0.846823,0.73002 -1.971054,1.503841 -3.007683,2.073257 h -0.686218 v 2.336064 h -6.029966 v 1.080429 h 6.029966 v 4.36552 c 0,0.262807 -0.0876,0.335809 -0.408812,0.350409 -0.306608,0.0146 -1.387038,0.0146 -2.55507,-0.0292 0.189806,0.306608 0.379611,0.803022 0.467213,1.10963 1.387038,0.0146 2.336064,-0.0146 2.876279,-0.189805 0.540215,-0.175205 0.73002,-0.511014 0.73002,-1.241034 v -4.36552 h 6.015365 z"
       style="fill:#ffffff;fill-opacity:1;stroke:#ffffff;stroke-width:0.520992;stroke-linecap:round;stroke-linejoin:round;stroke-miterlimit:4;stroke-dasharray:none;stroke-opacity:1"
       id="path2137" />
    <path
       d="m 44.343015,39.873499 v 3.255889 h -6.701583 v -3.255889 z m -7.767412,4.832733 h 1.065829 v -0.598617 h 6.701583 v 0.598617 h 1.109631 v -5.81096 h -8.877043 z m 0.75922,-8.599636 v 0.963626 h 7.314801 v -0.963626 z m 3.007683,-4.701329 c -1.138831,1.868851 -3.577098,4.088112 -6.117568,5.372947 0.248207,0.233607 0.540215,0.613217 0.671619,0.861424 2.496668,-1.328636 4.861933,-3.401893 6.059166,-5.183142 1.357837,1.868851 3.912907,3.912907 6.175969,5.09554 0.189805,-0.306609 0.452612,-0.686219 0.715419,-0.934426 -2.292262,-1.036628 -4.861933,-3.066084 -6.409575,-5.212343 z"
       style="fill:#ffffff;fill-opacity:1;stroke:#ffffff;stroke-width:0.520992;stroke-linecap:round;stroke-linejoin:round;stroke-miterlimit:4;stroke-dasharray:none;stroke-opacity:1"
       id="path2139" />
    <path
       d="m 58.067364,32.091486 c 0.919825,0.496414 2.029455,1.241034 2.58427,1.752048 l 0.671619,-0.74462 C 60.753837,32.5879 59.615006,31.88708 58.709781,31.434468 Z m 2.073256,3.942108 c -0.452612,1.47464 -1.080429,2.788676 -1.868851,3.942108 -0.394211,-1.387038 -0.657018,-3.124486 -0.803022,-5.066339 h 4.642927 v -1.065829 h -4.715929 c -0.0438,-0.788422 -0.0584,-1.606044 -0.0584,-2.452867 h -1.124231 c 0.0146,0.832223 0.0292,1.649845 0.0876,2.452867 h -6.088367 v 4.073512 c 0,1.883451 -0.131403,4.38012 -1.328636,6.161368 0.248207,0.131404 0.71542,0.511014 0.905225,0.73002 1.314036,-1.898052 1.533042,-4.832732 1.533042,-6.876788 v -0.116803 h 2.657273 c -0.0584,2.511269 -0.131404,3.431094 -0.33581,3.6501 -0.0876,0.131403 -0.233606,0.160604 -0.438012,0.160604 -0.248206,0 -0.876024,-0.0146 -1.547642,-0.073 0.175205,0.277408 0.292008,0.686219 0.306608,1.022028 0.71542,0.0292 1.372438,0.0292 1.737448,0 0.408811,-0.0438 0.657018,-0.146004 0.876024,-0.423411 0.306608,-0.379611 0.394211,-1.606044 0.467213,-4.876534 v -0.467213 h -3.723102 v -1.898052 h 5.037138 c 0.189805,2.350665 0.540215,4.496923 1.065829,6.146769 -0.934426,1.09503 -2.058656,2.000254 -3.358092,2.701074 0.248207,0.204405 0.627817,0.642417 0.788422,0.861423 1.12423,-0.657018 2.131658,-1.47464 3.007682,-2.423666 0.671618,1.503841 1.547642,2.394465 2.671873,2.394465 1.109631,0 1.503841,-0.715419 1.708247,-3.197487 -0.292008,-0.0876 -0.686219,-0.335809 -0.934426,-0.584016 -0.102202,1.941853 -0.277407,2.701074 -0.686218,2.701074 -0.744621,0 -1.416239,-0.832223 -1.956454,-2.263062 1.08043,-1.387038 1.941853,-3.051484 2.56967,-4.934935 z"
       style="fill:#ffffff;fill-opacity:1;stroke:#ffffff;stroke-width:0.520992;stroke-linecap:round;stroke-linejoin:round;stroke-miterlimit:4;stroke-dasharray:none;stroke-opacity:1"
       id="path2141" />
    <path
       d="m 72.054519,36.63221 h -3.022283 v 0.949026 h 7.241799 V 36.63221 h -3.139086 v -2.306863 h 3.577098 v -0.963626 h -3.577098 v -2.000255 h -1.08043 v 2.000255 h -3.474895 v 0.963626 h 3.474895 z m -4.204915,-5.270744 h -1.007428 v 6.818387 h 1.007428 z m -1.46004,2.306863 C 66.024554,33.201116 65.236132,32.5879 64.593715,32.179088 l -0.657018,0.613217 c 0.642417,0.438012 1.416239,1.09503 1.766648,1.562243 z m 0.0584,1.547643 c -1.109631,0.511014 -2.204661,0.992827 -2.978482,1.299435 l 0.37961,0.890625 c 0.846824,-0.379611 1.854251,-0.846824 2.817878,-1.299436 z m 8.658037,5.007937 c -0.642418,0.467213 -1.693647,1.09503 -2.55507,1.518441 -0.569416,-0.511014 -1.036629,-1.10963 -1.401639,-1.766648 h 5.548152 v -0.861424 h -6.000764 v -1.168032 h -1.08043 v 1.168032 H 63.68849 v 0.861424 h 4.993337 c -1.357837,0.905225 -3.387293,1.635245 -5.197743,1.971054 0.204406,0.204406 0.481814,0.554815 0.613217,0.803022 0.919825,-0.204406 1.898052,-0.511014 2.817877,-0.905225 v 1.591444 c -0.642417,0.0876 -1.241034,0.160604 -1.737447,0.219006 l 0.189805,0.934425 c 1.591444,-0.204405 3.825305,-0.525614 5.956963,-0.832222 l -0.0438,-0.905225 c -1.124231,0.160604 -2.277662,0.306608 -3.343492,0.452612 V 41.37734 c 0.817623,-0.408811 1.547643,-0.890624 2.131659,-1.401638 h 0.0292 c 1.182632,2.438267 3.28509,4.058911 6.175969,4.774331 0.131403,-0.262807 0.408811,-0.671619 0.642417,-0.890625 -1.430839,-0.292008 -2.686473,-0.832222 -3.708501,-1.576843 0.861423,-0.394211 1.898052,-0.949026 2.686473,-1.489241 z"
       style="fill:#ffffff;fill-opacity:1;stroke:#ffffff;stroke-width:0.520992;stroke-linecap:round;stroke-linejoin:round;stroke-miterlimit:4;stroke-dasharray:none;stroke-opacity:1"
       id="path2143" />
    <path
       d="m 83.559607,32.763104 h 2.379865 v 1.299436 h -2.379865 z m -1.007428,1.299436 h -2.321463 v -1.299436 h 2.321463 z M 86.9469,32.763104 h 2.452867 V 34.06254 H 86.9469 Z m 1.868851,6.059166 h -5.913162 v -0.788421 h 5.913162 z m 0,1.44544 h -5.913162 v -0.803022 h 5.913162 z m 0,1.47464 h -5.913162 v -0.817622 h 5.913162 z m -6.92059,-4.38012 v 5.037138 h 7.957218 V 37.36223 H 85.12185 c 0.0438,-0.262807 0.102202,-0.540214 0.146004,-0.846823 h 5.796358 v -0.861423 h -5.650354 c 0.0438,-0.262808 0.073,-0.540215 0.116803,-0.788422 h 4.934935 V 31.974683 H 79.208688 v 2.890879 h 5.226943 c -0.0292,0.248207 -0.0584,0.525614 -0.0876,0.788422 h -5.810959 v 0.861423 h 5.679556 c -0.0438,0.292008 -0.102203,0.584016 -0.146004,0.846823 z m 9.534061,5.854761 H 80.420521 v -5.635755 h -1.08043 v 7.124996 h 1.08043 v -0.613217 h 11.008701 z"
       style="fill:#ffffff;fill-opacity:1;stroke:#ffffff;stroke-width:0.520992;stroke-linecap:round;stroke-linejoin:round;stroke-miterlimit:4;stroke-dasharray:none;stroke-opacity:1"
       id="path2145" />
  </g>
</svg>
