<?xml version="1.0" encoding="UTF-8" standalone="no"?>
<svg
   xmlns:dc="http://purl.org/dc/elements/1.1/"
   xmlns:cc="http://creativecommons.org/ns#"
   xmlns:rdf="http://www.w3.org/1999/02/22-rdf-syntax-ns#"
   xmlns:svg="http://www.w3.org/2000/svg"
   xmlns="http://www.w3.org/2000/svg"
   xmlns:sodipodi="http://sodipodi.sourceforge.net/DTD/sodipodi-0.dtd"
   xmlns:inkscape="http://www.inkscape.org/namespaces/inkscape"
   width="300"
   height="300"
   viewBox="0 0 79.374999 79.374999"
   version="1.1"
   id="svg8"
   sodipodi:docname="質量エネルギー化装置.svg"
   inkscape:version="1.0.2-2 (e86c870879, 2021-01-15)">
  <sodipodi:namedview
     pagecolor="#ffffff"
     bordercolor="#666666"
     borderopacity="1"
     objecttolerance="10"
     gridtolerance="10"
     guidetolerance="10"
     inkscape:pageopacity="0"
     inkscape:pageshadow="2"
     inkscape:window-width="1920"
     inkscape:window-height="1001"
     id="namedview843"
     showgrid="false"
     units="px"
     inkscape:zoom="1.4271465"
     inkscape:cx="343.5447"
     inkscape:cy="247.00785"
     inkscape:window-x="-9"
     inkscape:window-y="-9"
     inkscape:window-maximized="1"
     inkscape:current-layer="svg8"
     inkscape:document-rotation="0" />
  <defs
     id="defs2" />
  <metadata
     id="metadata5">
    <rdf:RDF>
      <cc:Work
         rdf:about="">
        <dc:format>image/svg+xml</dc:format>
        <dc:type
           rdf:resource="http://purl.org/dc/dcmitype/StillImage" />
        <dc:title />
      </cc:Work>
    </rdf:RDF>
  </metadata>
  <path
     id="rect837"
     style="fill:#808080;fill-opacity:1;stroke:#4886b4;stroke-width:0.186326;stroke-linecap:round;stroke-linejoin:round;paint-order:stroke fill markers"
     d="M 5.9617072,0.09316314 H 73.413294 c 3.251173,0 5.868544,2.61737066 5.868544,5.86854406 V 73.413294 c 0,3.251173 -2.617371,5.868544 -5.868544,5.868544 H 5.9617072 c -3.2511734,0 -5.86854406,-2.617371 -5.86854406,-5.868544 V 5.9617072 c 0,-3.2511734 2.61737066,-5.86854406 5.86854406,-5.86854406 z" />
  <g
     aria-label="m→E"
     id="text835"
     style="font-style:italic;font-variant:normal;font-weight:bold;font-stretch:normal;font-size:15.8299px;line-height:1.25;font-family:'Source Han Serif';-inkscape-font-specification:'Source Han Serif Bold Italic';word-spacing:0px;fill:#fff648;fill-opacity:1;stroke-width:0.24734">
    <path
       d="m 30.930638,19.856784 c 0.158299,-0.902305 0.411577,-2.200356 0.585706,-3.102661 l 0.379918,-1.899588 c 0.427407,-2.137036 -0.189959,-3.10266 -1.820439,-3.10266 -1.044773,0 -2.073716,0.443237 -3.340108,1.646309 -0.07915,-1.123922 -0.728176,-1.646309 -1.867929,-1.646309 -1.076433,0 -2.105376,0.522387 -3.245129,1.58299 l 0.174129,-1.424691 -0.189959,-0.142469 -3.229299,0.965624 -0.07915,0.395747 1.218902,0.126639 c -0.07915,0.744006 -0.189958,1.313882 -0.411577,2.358655 l -0.221619,1.139753 c -0.174129,0.870645 -0.459067,2.184526 -0.649026,3.086831 l -1.187242,0.142469 -0.09498,0.490727 h 4.337392 l 0.09498,-0.490727 -0.997284,-0.126639 c 0.158299,-0.902305 0.411577,-2.232016 0.585706,-3.102661 l 0.554047,-2.801892 c 0.823154,-0.664856 1.58299,-1.060603 2.216186,-1.060603 0.838984,0 1.123922,0.506556 0.838984,1.947077 l -0.379917,1.915418 c -0.174129,0.902305 -0.459067,2.184526 -0.649026,3.086831 l -1.171413,0.142469 -0.09498,0.490727 h 4.289903 l 0.09498,-0.490727 -0.997284,-0.126639 c 0.142469,-0.902305 0.395748,-2.200356 0.569877,-3.102661 l 0.379917,-1.931248 c 0.06332,-0.316598 0.11081,-0.617366 0.12664,-0.886474 0.870644,-0.712345 1.598819,-1.044773 2.263675,-1.044773 0.823155,0 1.139753,0.443237 0.838985,1.931247 l -0.379918,1.931248 c -0.174129,0.902305 -0.459067,2.184526 -0.649026,3.086831 l -1.123922,0.142469 -0.09498,0.490727 h 4.274073 l 0.09498,-0.490727 z"
       style="font-style:italic;font-variant:normal;font-weight:bold;font-stretch:normal;font-size:15.8299px;font-family:'Source Han Serif';-inkscape-font-specification:'Source Han Serif Bold Italic';fill:#fff648;fill-opacity:1;stroke-width:0.24734"
       id="path3319" />
    <path
       d="m 34.080779,14.838705 h 12.853878 c -1.187242,0.775665 -2.453634,1.836269 -3.498407,2.944362 l 0.490726,0.474897 c 1.377202,-1.472181 3.26096,-2.881042 4.891439,-3.799176 -1.250562,-0.918134 -2.596103,-2.326995 -3.371768,-3.799176 l -0.680686,0.474897 c 0.569877,1.060603 1.456351,2.168696 2.326995,2.944361 H 34.239078 Z"
       style="font-style:italic;font-variant:normal;font-weight:bold;font-stretch:normal;font-size:15.8299px;font-family:'Source Han Serif';-inkscape-font-specification:'Source Han Serif Bold Italic';fill:#fff648;fill-opacity:1;stroke-width:0.24734"
       id="path3321" />
    <path
       d="m 57.841429,17.29234 -1.123923,2.532784 h -3.941645 c 0.284938,-1.61465 0.601536,-3.24513 0.965624,-5.033908 H 56.1318 l -0.11081,1.662139 h 0.744006 l 0.791495,-3.989135 h -0.744006 l -0.585706,1.725459 H 53.852294 C 54.184722,12.52754 54.50132,10.94455 54.865408,9.3932199 h 3.625047 l 0.110809,2.4378041 h 0.854815 l 0.601536,-3.1026599 h -8.848914 l -0.11081,0.5698764 1.472181,0.1424691 c -0.284938,1.5988194 -0.601536,3.1976394 -0.918134,4.7806294 l -0.158299,0.775665 c -0.316598,1.61465 -0.633196,3.21347 -0.981454,4.78063 l -1.5355,0.142469 -0.110809,0.554047 h 9.165512 l 0.680685,-3.18181 z"
       style="font-style:italic;font-variant:normal;font-weight:bold;font-stretch:normal;font-size:15.8299px;font-family:'Source Han Serif';-inkscape-font-specification:'Source Han Serif Bold Italic';fill:#fff648;fill-opacity:1;stroke-width:0.24734"
       id="path3323" />
  </g>
  <g
     aria-label="質量エネルギー化    装置"
     transform="scale(0.70897227,1.4104924)"
     id="text841"
     style="font-size:12.7474px;line-height:1.25;font-family:'Source Han Code JP';-inkscape-font-specification:'Source Han Code JP';word-spacing:0px;fill:#ffffff;fill-opacity:1;stroke:#ffffff;stroke-width:0.454871;stroke-linecap:round;stroke-linejoin:round;stroke-miterlimit:4;stroke-dasharray:none;stroke-opacity:1">
    <path
       d="m 9.1961401,23.445348 v 1.593425 h 0.8413289 v -1.593425 h 1.504193 V 22.705999 H 7.7174417 v -0.191211 -0.458906 c 1.1982556,-0.10198 2.5494803,-0.293191 3.4927873,-0.560886 l -0.63737,-0.58638 C 9.8844997,21.112574 8.7244863,21.291038 7.6282099,21.431259 L 6.8761133,21.214553 v 1.261993 c 0,0.815834 -0.1529688,1.822878 -1.0580343,2.651459 0.2039584,0.127474 0.4971486,0.407917 0.6373701,0.611875 0.7266018,-0.675612 1.0580342,-1.529688 1.1855082,-2.294532 z m -0.764844,5.481382 h 6.4246899 v 0.917813 H 8.4312961 Z m 0,-1.504193 h 6.4246899 v 0.892318 H 8.4312961 Z m 0,-1.491446 h 6.4246899 v 0.879571 H 8.4312961 Z M 7.5262307,30.481913 H 15.799293 V 25.293721 H 7.5262307 Z m 2.1543106,0.127474 c -0.9050654,0.509896 -2.4347534,0.956055 -3.7349883,1.223751 0.2167058,0.165716 0.5353909,0.535391 0.7011071,0.713854 1.2619926,-0.34418 2.8554176,-0.93056 3.8879569,-1.529688 z m 2.9701447,0.522644 c 1.389466,0.458906 2.766185,0.994297 3.556524,1.402214 l 1.045287,-0.471654 c -0.93056,-0.420664 -2.447501,-0.968803 -3.82422,-1.414962 z m 0.229453,-8.426032 c 0.01275,-0.101979 0.01275,-0.203958 0.01275,-0.29319 v -0.34418 c 1.287488,-0.101979 2.740691,-0.280443 3.734988,-0.548138 l -0.63737,-0.599128 c -0.752096,0.216706 -2.039584,0.395169 -3.212344,0.509896 l -0.726602,-0.178464 v 1.134519 c 0,0.701107 -0.191211,1.516941 -1.223751,2.192553 0.203959,0.127474 0.471654,0.420664 0.586381,0.624623 0.764844,-0.509896 1.147266,-1.147266 1.325729,-1.759142 h 1.771889 v 1.61892 h 0.854076 v -1.61892 h 1.886615 v -0.739349 z"
       style="fill:#ffffff;fill-opacity:1;stroke:#ffffff;stroke-width:0.454871;stroke-linecap:round;stroke-linejoin:round;stroke-miterlimit:4;stroke-dasharray:none;stroke-opacity:1"
       id="path3326" />
    <path
       d="m 27.475888,22.540283 h -6.309963 v -0.68836 h 6.309963 z m 0,1.249245 h -6.309963 v -0.701107 h 6.309963 z m 0.93056,-2.511238 H 20.26086 v 3.084871 h 8.145588 z m 1.61892,3.607515 H 18.680182 v 0.726601 h 11.345186 z m -9.114391,3.887957 V 28.04716 h 2.957397 v 0.726602 z m 0,-2.001342 h 2.957397 v 0.713854 h -2.957397 z m 6.947333,0.713854 H 24.773439 V 26.77242 h 3.084871 z m 0,1.287488 H 24.773439 V 28.04716 h 3.084871 z m -3.084871,2.689701 v -0.739349 h 4.283127 v -0.662865 h -4.283127 v -0.701107 h 4.015432 v -3.174103 h -8.757464 v 3.174103 h 3.836967 v 0.701107 h -4.206642 v 0.662865 h 4.206642 v 0.739349 h -5.264676 v 0.739349 h 11.485407 v -0.739349 z"
       style="fill:#ffffff;fill-opacity:1;stroke:#ffffff;stroke-width:0.454871;stroke-linecap:round;stroke-linejoin:round;stroke-miterlimit:4;stroke-dasharray:none;stroke-opacity:1"
       id="path3328" />
    <path
       d="m 37.584553,29.946522 v -5.863804 h 3.059376 c 0.356927,0 0.764844,0.01275 1.083529,0.05099 v -1.121771 c -0.305938,0.03824 -0.701107,0.07648 -1.083529,0.07648 h -7.01107 c -0.254948,0 -0.739349,-0.02549 -1.070782,-0.07648 v 1.121771 c 0.318685,-0.03824 0.828581,-0.05099 1.070782,-0.05099 h 2.868165 v 5.863804 h -3.594767 c -0.34418,0 -0.739349,-0.02549 -1.121771,-0.07648 v 1.160013 c 0.395169,-0.03824 0.777591,-0.05099 1.121771,-0.05099 h 8.426032 c 0.254948,0 0.713854,0 1.058034,0.05099 v -1.160013 c -0.331433,0.03824 -0.675612,0.07648 -1.058034,0.07648 z"
       style="fill:#ffffff;fill-opacity:1;stroke:#ffffff;stroke-width:0.454871;stroke-linecap:round;stroke-linejoin:round;stroke-miterlimit:4;stroke-dasharray:none;stroke-opacity:1"
       id="path3330" />
    <path
       d="m 53.340317,23.1904 c -0.216706,0.06374 -0.509896,0.07648 -0.803086,0.07648 h -2.103322 v -0.815834 c 0,-0.356927 0.02549,-0.841328 0.07648,-1.121771 h -1.172761 c 0.05099,0.280443 0.07648,0.764844 0.07648,1.121771 v 0.815834 h -2.49849 c -0.433412,0 -1.147266,-0.01275 -1.542435,-0.06374 v 1.070781 c 0.382422,-0.02549 1.109023,-0.05099 1.555182,-0.05099 h 5.290171 c -0.433411,0.599128 -1.453203,1.593425 -2.587722,2.332774 -1.160013,0.752097 -2.753438,1.593425 -5.162697,2.167058 l 0.611875,0.943308 c 1.720899,-0.522644 3.123113,-1.083529 4.308622,-1.771889 0,0.866823 -0.01275,2.039584 -0.01275,2.778933 0,0.446159 -0.02549,1.03254 -0.07648,1.402214 h 1.160013 c -0.02549,-0.395169 -0.06374,-0.956055 -0.06374,-1.402214 0,-0.854076 0.01275,-2.383764 0.01275,-3.42905 1.17276,-0.815834 2.243542,-1.886616 2.880912,-2.65146 0.203959,-0.229453 0.484401,-0.522643 0.713855,-0.764844 z m -1.810131,4.678296 c 1.198256,0.63737 1.9631,1.147266 3.072123,1.9631 l 0.662865,-0.866823 C 54.079666,28.161886 53.391306,27.766717 52.193051,27.1166 Z"
       style="fill:#ffffff;fill-opacity:1;stroke:#ffffff;stroke-width:0.454871;stroke-linecap:round;stroke-linejoin:round;stroke-miterlimit:4;stroke-dasharray:none;stroke-opacity:1"
       id="path3332" />
    <path
       d="m 58.00584,31.845885 c 1.070782,-0.879571 1.886616,-2.128816 2.269038,-3.492788 0.344179,-1.27474 0.395169,-4.002683 0.395169,-5.417645 0,-0.382422 0.05099,-0.764844 0.06374,-0.917813 h -1.172761 c 0.05099,0.267696 0.08923,0.548139 0.08923,0.930561 0,1.414961 -0.01275,3.951694 -0.382422,5.124455 -0.382422,1.236497 -1.147266,2.371016 -2.218048,3.13586 z m 5.557867,-0.01275 c 0.127474,-0.101979 0.242201,-0.191211 0.433412,-0.29319 1.478698,-0.73935 3.250587,-2.039585 4.346863,-3.53103 l -0.611875,-0.866824 c -0.968803,1.440457 -2.536733,2.60047 -3.709494,3.135861 v -7.35525 c 0,-0.484401 0.03824,-0.841329 0.05099,-0.943308 h -1.172761 c 0.01275,0.101979 0.07649,0.458907 0.07649,0.943308 v 7.635693 c 0,0.254948 -0.03824,0.509896 -0.08923,0.713854 z"
       style="fill:#ffffff;fill-opacity:1;stroke:#ffffff;stroke-width:0.454871;stroke-linecap:round;stroke-linejoin:round;stroke-miterlimit:4;stroke-dasharray:none;stroke-opacity:1"
       id="path3334" />
    <path
       d="M 79.574417,22.935452 C 79.306722,22.412809 78.847815,21.647965 78.52913,21.189058 l -0.675612,0.293191 c 0.34418,0.471653 0.777591,1.249245 1.032539,1.759141 z m -4.385106,1.9631 2.957397,-0.471654 c 0.34418,-0.05099 0.726602,-0.114726 0.917813,-0.127474 l -0.203958,-1.070781 c -0.216706,0.06374 -0.548139,0.140221 -0.917813,0.203958 -0.535391,0.101979 -1.708152,0.305938 -2.94465,0.509896 -0.140221,-0.726602 -0.2422,-1.236498 -0.254948,-1.376719 -0.05099,-0.280443 -0.101979,-0.650118 -0.127474,-0.879571 l -1.134518,0.191211 c 0.08923,0.267696 0.165716,0.548138 0.229453,0.866823 0.03824,0.152969 0.140221,0.662865 0.280443,1.351225 -1.198256,0.191211 -2.320027,0.356927 -2.817176,0.407917 -0.395169,0.03824 -0.739349,0.06374 -1.058034,0.08923 l 0.229453,1.134519 c 0.280443,-0.06374 0.611875,-0.140221 1.019792,-0.216706 0.497149,-0.08923 1.606173,-0.267695 2.817176,-0.458906 l 0.497148,2.562227 c -1.453203,0.229453 -2.84267,0.446159 -3.48004,0.535391 -0.331432,0.05099 -0.815834,0.101979 -1.121771,0.114727 l 0.229453,1.121771 c 0.280443,-0.07648 0.63737,-0.152969 1.121771,-0.242201 0.624623,-0.114726 1.988595,-0.34418 3.441798,-0.573633 0.242201,1.261993 0.433412,2.294532 0.484401,2.574975 0.08923,0.369675 0.127474,0.764844 0.191211,1.198256 l 1.172761,-0.216706 c -0.127474,-0.369675 -0.229453,-0.803086 -0.318685,-1.172761 -0.06374,-0.280443 -0.267695,-1.312982 -0.522643,-2.54948 1.261992,-0.203958 2.447501,-0.395169 3.148608,-0.497149 0.471654,-0.08923 0.87957,-0.152968 1.147266,-0.178463 l -0.216706,-1.070782 c -0.267695,0.07649 -0.63737,0.165716 -1.121771,0.254948 -0.63737,0.114727 -1.861121,0.318685 -3.148608,0.535391 z m 4.066421,-3.938947 c 0.356927,0.484401 0.777591,1.198256 1.058034,1.759142 l 0.68836,-0.305938 c -0.242201,-0.471654 -0.739349,-1.27474 -1.070782,-1.733647 z"
       style="fill:#ffffff;fill-opacity:1;stroke:#ffffff;stroke-width:0.454871;stroke-linecap:round;stroke-linejoin:round;stroke-miterlimit:4;stroke-dasharray:none;stroke-opacity:1"
       id="path3336" />
    <path
       d="m 83.003447,27.269568 c 0.395169,-0.03824 1.070781,-0.06374 1.771888,-0.06374 h 6.998323 c 0.573633,0 1.109024,0.05099 1.363972,0.06374 v -1.249245 c -0.280443,0.02549 -0.739349,0.06374 -1.376719,0.06374 h -6.985576 c -0.713854,0 -1.389466,-0.03824 -1.771888,-0.06374 z"
       style="fill:#ffffff;fill-opacity:1;stroke:#ffffff;stroke-width:0.454871;stroke-linecap:round;stroke-linejoin:round;stroke-miterlimit:4;stroke-dasharray:none;stroke-opacity:1"
       id="path3338" />
    <path
       d="m 98.466018,21.074332 c -0.841328,2.001342 -2.243542,3.926199 -3.696746,5.137202 0.178464,0.229453 0.471654,0.726602 0.573633,0.956055 0.560886,-0.509896 1.121772,-1.121771 1.657162,-1.797383 v 7.113049 h 0.956055 v -8.451526 c 0.548139,-0.841329 1.03254,-1.746394 1.414962,-2.65146 z m 3.977192,10.363636 c -0.70111,0 -0.84133,-0.152968 -0.84133,-0.866823 v -3.696746 c 1.58068,-0.841328 3.28883,-1.810131 4.48708,-2.778933 l -0.67561,-0.815834 c -0.94331,0.854076 -2.39651,1.848373 -3.81147,2.638712 v -4.742033 h -0.95606 v 9.382087 c 0,1.389466 0.40792,1.771888 1.73365,1.771888 h 2.61322 c 1.31298,0 1.59342,-0.726601 1.74639,-2.79168 -0.28044,-0.06374 -0.66286,-0.242201 -0.90506,-0.407917 -0.0892,1.848373 -0.20396,2.307279 -0.90507,2.307279 z"
       style="fill:#ffffff;fill-opacity:1;stroke:#ffffff;stroke-width:0.454871;stroke-linecap:round;stroke-linejoin:round;stroke-miterlimit:4;stroke-dasharray:none;stroke-opacity:1"
       id="path3340" />
    <path
       d="m 47.234374,41.406469 h -2.638712 v 0.828581 h 6.322711 V 41.406469 H 48.177682 V 39.39238 h 3.123113 v -0.841328 h -3.123113 v -1.746394 h -0.943308 v 1.746394 h -3.033881 v 0.841328 h 3.033881 z m -3.671251,-4.601811 h -0.879571 v 5.953036 h 0.879571 z m -1.27474,2.014089 c -0.318685,-0.407917 -1.007045,-0.943308 -1.56793,-1.300235 l -0.573633,0.535391 c 0.560885,0.382422 1.236497,0.956055 1.542435,1.363972 z m 0.05099,1.351224 c -0.968802,0.446159 -1.924857,0.866824 -2.600469,1.134519 l 0.331432,0.777591 c 0.739349,-0.331432 1.61892,-0.739349 2.460248,-1.134518 z m 7.559209,4.372359 c -0.560886,0.407916 -1.478699,0.956055 -2.230795,1.325729 C 47.170637,45.4219 46.76272,44.899257 46.444035,44.325624 h 4.844012 v -0.752097 h -5.239181 v -1.019792 h -0.943308 v 1.019792 h -5.175444 v 0.752097 h 4.359611 c -1.185509,0.790339 -2.957397,1.427709 -4.538075,1.720899 0.178464,0.178463 0.420664,0.484401 0.535391,0.701107 0.803086,-0.178464 1.657162,-0.446159 2.460248,-0.790339 v 1.389467 c -0.560885,0.07648 -1.083529,0.140221 -1.51694,0.191211 l 0.165716,0.815833 c 1.389466,-0.178463 3.339819,-0.458906 5.200939,-0.726601 l -0.03824,-0.790339 c -0.98155,0.140221 -1.988595,0.267695 -2.919155,0.395169 v -1.682657 c 0.713855,-0.356927 1.351225,-0.777591 1.861121,-1.22375 h 0.02549 c 1.032539,2.128816 2.868165,3.543777 5.39215,4.1684 0.114726,-0.229453 0.356927,-0.586381 0.560885,-0.777592 -1.249245,-0.254948 -2.345521,-0.726601 -3.237839,-1.376719 0.752096,-0.34418 1.657162,-0.828581 2.345521,-1.300235 z"
       style="fill:#ffffff;fill-opacity:1;stroke:#ffffff;stroke-width:0.454871;stroke-linecap:round;stroke-linejoin:round;stroke-miterlimit:4;stroke-dasharray:none;stroke-opacity:1"
       id="path3342" />
    <path
       d="m 57.279301,38.028408 h 2.077826 v 1.134519 h -2.077826 z m -0.879571,1.134519 h -2.026836 v -1.134519 h 2.026836 z m 3.836968,-1.134519 h 2.141563 v 1.134519 h -2.141563 z m 1.631667,5.290171 H 56.705668 V 42.63022 h 5.162697 z m 0,1.261993 h -5.162697 v -0.701107 h 5.162697 z m 0,1.287487 h -5.162697 v -0.713854 h 5.162697 z m -6.042268,-3.82422 v 4.397853 h 6.947333 v -4.397853 h -4.130157 c 0.03824,-0.229453 0.08923,-0.471654 0.127474,-0.739349 h 5.060718 v -0.752097 h -4.933244 c 0.03824,-0.229453 0.06374,-0.471653 0.101979,-0.688359 h 4.308621 v -2.523986 h -9.828246 v 2.523986 h 4.56357 c -0.02549,0.216706 -0.05099,0.458906 -0.07648,0.688359 h -5.073465 v 0.752097 h 4.958739 c -0.03824,0.254948 -0.08923,0.509896 -0.127474,0.739349 z m 8.324053,5.111708 H 54.53861 V 42.23505 h -0.943308 v 6.220732 h 0.943308 v -0.535391 h 9.61154 z"
       style="fill:#ffffff;fill-opacity:1;stroke:#ffffff;stroke-width:0.454871;stroke-linecap:round;stroke-linejoin:round;stroke-miterlimit:4;stroke-dasharray:none;stroke-opacity:1"
       id="path3344" />
  </g>
</svg>
